M48
;DRILL file {KiCad (5.0.1)-3} date 01-Nov-18 21:27:31
;FORMAT={-:-/ absolute / inch / decimal}
FMAT,2
INCH,TZ
T1C0.0157
T2C0.0197
T3C0.0394
T4C0.0433
T5C0.0551
T6C0.0670
T7C0.1570
%
G90
G05
M72
T1
X1.3125Y-4.9125
X1.376Y-4.261
X1.4194Y-4.1132
X1.4627Y-4.1211
X1.4804Y-4.878
X1.506Y-4.1269
X1.5256Y-4.8798
X1.5719Y-4.876
X1.6172Y-4.7431
X1.625Y-4.2982
X1.6693Y-4.2589
X1.7224Y-4.2628
X1.7657Y-4.2618
X1.7718Y-4.8858
X1.8Y-4.65
X1.8141Y-4.8848
X1.875Y-4.875
X1.8864Y-4.0931
X1.8871Y-4.2031
X1.9087Y-4.1154
X1.9124Y-4.1732
X1.9419Y-4.122
X1.9695Y-4.2126
X1.9931Y-4.1732
X2.0118Y-4.4783
X2.0148Y-4.5217
X2.0157Y-4.6516
X2.0157Y-4.2855
X2.0167Y-4.6949
X2.0177Y-4.565
X2.0177Y-4.6083
X2.0177Y-4.7382
X2.0187Y-4.3917
X2.0191Y-4.435
X2.0423Y-4.31
X2.1953Y-4.8102
X2.1961Y-4.8752
X2.2484Y-4.9409
X2.4375Y-4.7894
X3.4702Y-3.7792
X3.9942Y-3.8091
X4.0996Y-3.8563
X4.1622Y-3.7409
T2
X4.2362Y-3.5231
X4.2362Y-3.5625
X4.2362Y-3.6019
X4.7638Y-3.5231
X4.7638Y-3.5625
X4.7638Y-3.6019
X1.9862Y-2.9606
X1.9862Y-3.
X1.9862Y-3.0394
X2.5138Y-2.9606
X2.5138Y-3.
X2.5138Y-3.0394
X5.7362Y-4.6524
X5.7362Y-4.6917
X5.7362Y-4.7311
X6.2638Y-4.6524
X6.2638Y-4.6917
X6.2638Y-4.7311
X4.2362Y-4.2731
X4.2362Y-4.3125
X4.2362Y-4.3519
X4.7638Y-4.2731
X4.7638Y-4.3125
X4.7638Y-4.3519
X3.4862Y-1.8356
X3.4862Y-1.875
X3.4862Y-1.9144
X4.0138Y-1.8356
X4.0138Y-1.875
X4.0138Y-1.9144
X4.2362Y-1.2731
X4.2362Y-1.3125
X4.2362Y-1.3519
X4.7638Y-1.2731
X4.7638Y-1.3125
X4.7638Y-1.3519
X1.9862Y-2.2106
X1.9862Y-2.25
X1.9862Y-2.2894
X2.5138Y-2.2106
X2.5138Y-2.25
X2.5138Y-2.2894
X4.9862Y-3.0356
X4.9862Y-3.075
X4.9862Y-3.1144
X5.5138Y-3.0356
X5.5138Y-3.075
X5.5138Y-3.1144
X4.9862Y-3.7856
X4.9862Y-3.825
X4.9862Y-3.8644
X5.5138Y-3.7856
X5.5138Y-3.825
X5.5138Y-3.8644
X4.9862Y-1.5356
X4.9862Y-1.575
X4.9862Y-1.6144
X5.5138Y-1.5356
X5.5138Y-1.575
X5.5138Y-1.6144
X1.2362Y-1.4606
X1.2362Y-1.5
X1.2362Y-1.5394
X1.7638Y-1.4606
X1.7638Y-1.5
X1.7638Y-1.5394
X4.9862Y-4.5356
X4.9862Y-4.575
X4.9862Y-4.6144
X5.5138Y-4.5356
X5.5138Y-4.575
X5.5138Y-4.6144
X4.2362Y-2.7731
X4.2362Y-2.8125
X4.2362Y-2.8519
X4.7638Y-2.7731
X4.7638Y-2.8125
X4.7638Y-2.8519
X2.7362Y-2.0231
X2.7362Y-2.0625
X2.7362Y-2.1019
X3.2638Y-2.0231
X3.2638Y-2.0625
X3.2638Y-2.1019
X3.4862Y-4.0856
X3.4862Y-4.125
X3.4862Y-4.1644
X4.0138Y-4.0856
X4.0138Y-4.125
X4.0138Y-4.1644
X1.2362Y-2.9606
X1.2362Y-3.
X1.2362Y-3.0394
X1.7638Y-2.9606
X1.7638Y-3.
X1.7638Y-3.0394
X2.7362Y-3.5231
X2.7362Y-3.5625
X2.7362Y-3.6019
X3.2638Y-3.5231
X3.2638Y-3.5625
X3.2638Y-3.6019
X3.4862Y-2.5856
X3.4862Y-2.625
X3.4862Y-2.6644
X4.0138Y-2.5856
X4.0138Y-2.625
X4.0138Y-2.6644
X3.4862Y-1.0856
X3.4862Y-1.125
X3.4862Y-1.1644
X4.0138Y-1.0856
X4.0138Y-1.125
X4.0138Y-1.1644
X1.9862Y-1.4606
X1.9862Y-1.5
X1.9862Y-1.5394
X2.5138Y-1.4606
X2.5138Y-1.5
X2.5138Y-1.5394
X2.7362Y-2.7731
X2.7362Y-2.8125
X2.7362Y-2.8519
X3.2638Y-2.7731
X3.2638Y-2.8125
X3.2638Y-2.8519
X4.2362Y-2.0231
X4.2362Y-2.0625
X4.2362Y-2.1019
X4.7638Y-2.0231
X4.7638Y-2.0625
X4.7638Y-2.1019
X1.2362Y-2.2106
X1.2362Y-2.25
X1.2362Y-2.2894
X1.7638Y-2.2106
X1.7638Y-2.25
X1.7638Y-2.2894
X1.9862Y-3.7106
X1.9862Y-3.75
X1.9862Y-3.7894
X2.5138Y-3.7106
X2.5138Y-3.75
X2.5138Y-3.7894
X4.9862Y-2.2856
X4.9862Y-2.325
X4.9862Y-2.3644
X5.5138Y-2.2856
X5.5138Y-2.325
X5.5138Y-2.3644
X3.4862Y-3.3356
X3.4862Y-3.375
X3.4862Y-3.4144
X4.0138Y-3.3356
X4.0138Y-3.375
X4.0138Y-3.4144
X2.7362Y-1.2731
X2.7362Y-1.3125
X2.7362Y-1.3519
X3.2638Y-1.2731
X3.2638Y-1.3125
X3.2638Y-1.3519
X1.2362Y-3.7106
X1.2362Y-3.75
X1.2362Y-3.7894
X1.7638Y-3.7106
X1.7638Y-3.75
X1.7638Y-3.7894
T3
X1.5375Y-4.3625
X1.5375Y-4.4625
X1.5375Y-4.5625
X1.5375Y-4.6625
T4
X2.2Y-1.3
X2.3Y-1.3
X2.95Y-2.6125
X3.05Y-2.6125
X4.45Y-1.8625
X4.55Y-1.8625
X1.45Y-2.05
X1.55Y-2.05
X2.2Y-3.55
X2.3Y-3.55
X5.2Y-2.125
X5.3Y-2.125
X3.7Y-3.175
X3.8Y-3.175
X2.95Y-1.1125
X3.05Y-1.1125
X1.45Y-3.55
X1.55Y-3.55
X2.5019Y-4.725
X3.4231Y-4.725
X4.45Y-3.3625
X4.55Y-3.3625
X2.2Y-2.8
X2.3Y-2.8
X5.95Y-4.4917
X6.05Y-4.4917
X4.45Y-4.1125
X4.55Y-4.1125
X3.7Y-1.675
X3.8Y-1.675
X4.45Y-1.1125
X4.55Y-1.1125
X2.2Y-2.05
X2.3Y-2.05
X5.2Y-2.875
X5.3Y-2.875
X5.2Y-3.625
X5.3Y-3.625
X5.2Y-1.375
X5.3Y-1.375
X1.45Y-1.3
X1.55Y-1.3
X5.2Y-4.375
X5.3Y-4.375
X4.45Y-2.6125
X4.55Y-2.6125
X2.95Y-1.8625
X3.05Y-1.8625
X3.7Y-3.925
X3.8Y-3.925
X1.45Y-2.8
X1.55Y-2.8
X2.95Y-3.3625
X3.05Y-3.3625
X3.7Y-2.425
X3.8Y-2.425
X3.7Y-0.925
X3.8Y-0.925
T5
X4.35Y-2.9125
X4.4Y-3.0045
X4.6Y-3.0045
X4.65Y-2.9125
X2.85Y-2.1625
X2.9Y-2.2545
X3.1Y-2.2545
X3.15Y-2.1625
X3.6Y-4.225
X3.65Y-4.317
X3.85Y-4.317
X3.9Y-4.225
X1.35Y-3.1
X1.4Y-3.192
X1.6Y-3.192
X1.65Y-3.1
X2.85Y-3.6625
X2.9Y-3.7545
X3.1Y-3.7545
X3.15Y-3.6625
X3.6Y-2.725
X3.65Y-2.817
X3.85Y-2.817
X3.9Y-2.725
X3.6Y-1.225
X3.65Y-1.317
X3.85Y-1.317
X3.9Y-1.225
X2.1Y-1.6
X2.15Y-1.692
X2.35Y-1.692
X2.4Y-1.6
X2.85Y-2.9125
X2.9Y-3.0045
X3.1Y-3.0045
X3.15Y-2.9125
X4.35Y-2.1625
X4.4Y-2.2545
X4.6Y-2.2545
X4.65Y-2.1625
X1.35Y-2.35
X1.4Y-2.442
X1.6Y-2.442
X1.65Y-2.35
X2.1Y-3.85
X2.15Y-3.942
X2.35Y-3.942
X2.4Y-3.85
X5.1Y-2.425
X5.15Y-2.517
X5.35Y-2.517
X5.4Y-2.425
X3.6Y-3.475
X3.65Y-3.567
X3.85Y-3.567
X3.9Y-3.475
X2.85Y-1.4125
X2.9Y-1.5045
X3.1Y-1.5045
X3.15Y-1.4125
X1.35Y-3.85
X1.4Y-3.942
X1.6Y-3.942
X1.65Y-3.85
X4.35Y-3.6625
X4.4Y-3.7545
X4.6Y-3.7545
X4.65Y-3.6625
X2.1Y-3.1
X2.15Y-3.192
X2.35Y-3.192
X2.4Y-3.1
X5.85Y-4.7917
X5.9Y-4.8837
X6.1Y-4.8837
X6.15Y-4.7917
X4.35Y-4.4125
X4.4Y-4.5045
X4.6Y-4.5045
X4.65Y-4.4125
X3.6Y-1.975
X3.65Y-2.067
X3.85Y-2.067
X3.9Y-1.975
X4.35Y-1.4125
X4.4Y-1.5045
X4.6Y-1.5045
X4.65Y-1.4125
X2.1Y-2.35
X2.15Y-2.442
X2.35Y-2.442
X2.4Y-2.35
X5.1Y-3.175
X5.15Y-3.267
X5.35Y-3.267
X5.4Y-3.175
X5.1Y-3.925
X5.15Y-4.017
X5.35Y-4.017
X5.4Y-3.925
X5.1Y-1.675
X5.15Y-1.767
X5.35Y-1.767
X5.4Y-1.675
X1.35Y-1.6
X1.4Y-1.692
X1.6Y-1.692
X1.65Y-1.6
X5.1Y-4.675
X5.15Y-4.767
X5.35Y-4.767
X5.4Y-4.675
T6
X5.05Y-2.325
X5.45Y-2.325
X3.55Y-3.375
X3.95Y-3.375
X2.8Y-1.3125
X3.2Y-1.3125
X1.3Y-3.75
X1.7Y-3.75
X4.3Y-3.5625
X4.7Y-3.5625
X2.05Y-3.
X2.45Y-3.
X5.8Y-4.6917
X6.2Y-4.6917
X4.3Y-4.3125
X4.7Y-4.3125
X3.55Y-1.875
X3.95Y-1.875
X4.3Y-1.3125
X4.7Y-1.3125
X2.05Y-2.25
X2.45Y-2.25
X5.05Y-3.075
X5.45Y-3.075
X5.05Y-3.825
X5.45Y-3.825
X5.05Y-1.575
X5.45Y-1.575
X1.3Y-1.5
X1.7Y-1.5
X5.05Y-4.575
X5.45Y-4.575
X4.3Y-2.8125
X4.7Y-2.8125
X2.8Y-2.0625
X3.2Y-2.0625
X3.55Y-4.125
X3.95Y-4.125
X1.3Y-3.
X1.7Y-3.
X2.8Y-3.5625
X3.2Y-3.5625
X3.55Y-2.625
X3.95Y-2.625
X3.55Y-1.125
X3.95Y-1.125
X2.05Y-1.5
X2.45Y-1.5
X2.8Y-2.8125
X3.2Y-2.8125
X4.3Y-2.0625
X4.7Y-2.0625
X1.3Y-2.25
X1.7Y-2.25
X2.05Y-3.75
X2.45Y-3.75
T7
X4.5Y-3.5625
X2.25Y-3.
X6.Y-4.6917
X4.5Y-4.3125
X3.75Y-1.875
X4.5Y-1.3125
X2.25Y-2.25
X5.25Y-3.075
X5.25Y-3.825
X5.25Y-1.575
X1.5Y-1.5
X5.25Y-4.575
X4.5Y-2.8125
X3.Y-2.0625
X3.75Y-4.125
X1.5Y-3.
X3.Y-3.5625
X3.75Y-2.625
X3.75Y-1.125
X2.25Y-1.5
X3.Y-2.8125
X4.5Y-2.0625
X1.5Y-2.25
X2.25Y-3.75
X5.25Y-2.325
X3.75Y-3.375
X3.Y-1.3125
X1.5Y-3.75
T0
M30
