G04 #@! TF.GenerationSoftware,KiCad,Pcbnew,(5.0.1)-3*
G04 #@! TF.CreationDate,2018-11-01T21:26:11+07:00*
G04 #@! TF.ProjectId,atreus_split,6174726575735F73706C69742E6B6963,rev?*
G04 #@! TF.SameCoordinates,Original*
G04 #@! TF.FileFunction,Copper,L1,Top,Signal*
G04 #@! TF.FilePolarity,Positive*
%FSLAX46Y46*%
G04 Gerber Fmt 4.6, Leading zero omitted, Abs format (unit mm)*
G04 Created by KiCad (PCBNEW (5.0.1)-3) date 01-Nov-18 21:26:11*
%MOMM*%
%LPD*%
G01*
G04 APERTURE LIST*
G04 #@! TA.AperFunction,ComponentPad*
%ADD10C,1.600000*%
G04 #@! TD*
G04 #@! TA.AperFunction,ComponentPad*
%ADD11C,1.000000*%
G04 #@! TD*
G04 #@! TA.AperFunction,ComponentPad*
%ADD12C,4.300000*%
G04 #@! TD*
G04 #@! TA.AperFunction,ComponentPad*
%ADD13C,2.000000*%
G04 #@! TD*
G04 #@! TA.AperFunction,ComponentPad*
%ADD14C,2.500000*%
G04 #@! TD*
G04 #@! TA.AperFunction,ComponentPad*
%ADD15O,2.500000X1.800000*%
G04 #@! TD*
G04 #@! TA.AperFunction,SMDPad,CuDef*
%ADD16O,2.000000X0.700000*%
G04 #@! TD*
G04 #@! TA.AperFunction,SMDPad,CuDef*
%ADD17O,0.700000X2.000000*%
G04 #@! TD*
G04 #@! TA.AperFunction,SMDPad,CuDef*
%ADD18O,15.000000X8.500000*%
G04 #@! TD*
G04 #@! TA.AperFunction,ComponentPad*
%ADD19R,1.700000X1.700000*%
G04 #@! TD*
G04 #@! TA.AperFunction,ComponentPad*
%ADD20O,1.700000X1.700000*%
G04 #@! TD*
G04 #@! TA.AperFunction,SMDPad,CuDef*
%ADD21R,1.900000X0.800000*%
G04 #@! TD*
G04 #@! TA.AperFunction,ViaPad*
%ADD22C,0.600000*%
G04 #@! TD*
G04 #@! TA.AperFunction,Conductor*
%ADD23C,0.250000*%
G04 #@! TD*
G04 #@! TA.AperFunction,Conductor*
%ADD24C,2.000000*%
G04 #@! TD*
G04 #@! TA.AperFunction,Conductor*
%ADD25C,1.000000*%
G04 #@! TD*
G04 APERTURE END LIST*
D10*
G04 #@! TO.P,S71,0*
G04 #@! TO.N,N/C*
X151130000Y-114090000D03*
X153670000Y-114090000D03*
D11*
G04 #@! TO.P,S71,2*
G04 #@! TO.N,/S71*
X159100000Y-120170000D03*
X159100000Y-118170000D03*
X159100000Y-119170000D03*
D12*
G04 #@! TO.P,S71,0*
G04 #@! TO.N,N/C*
X152400000Y-119170000D03*
D13*
G04 #@! TO.P,S71,2*
G04 #@! TO.N,/S71*
X157480000Y-119170000D03*
G04 #@! TO.P,S71,1*
G04 #@! TO.N,GND*
X147320000Y-119170000D03*
D14*
G04 #@! TO.P,S71,2*
G04 #@! TO.N,/S71*
X156210000Y-121710000D03*
D15*
G04 #@! TO.P,S71,1*
G04 #@! TO.N,GND*
X149860000Y-124046800D03*
D14*
X148590000Y-121710000D03*
D15*
G04 #@! TO.P,S71,2*
G04 #@! TO.N,/S71*
X154940000Y-124046800D03*
D11*
G04 #@! TO.P,S71,1*
G04 #@! TO.N,GND*
X145700000Y-119170000D03*
X145700000Y-120170000D03*
X145700000Y-118170000D03*
G04 #@! TD*
D10*
G04 #@! TO.P,S65,0*
G04 #@! TO.N,N/C*
X132080000Y-111125000D03*
X134620000Y-111125000D03*
D11*
G04 #@! TO.P,S65,2*
G04 #@! TO.N,/S65*
X140050000Y-117205000D03*
X140050000Y-115205000D03*
X140050000Y-116205000D03*
D12*
G04 #@! TO.P,S65,0*
G04 #@! TO.N,N/C*
X133350000Y-116205000D03*
D13*
G04 #@! TO.P,S65,2*
G04 #@! TO.N,/S65*
X138430000Y-116205000D03*
G04 #@! TO.P,S65,1*
G04 #@! TO.N,GND*
X128270000Y-116205000D03*
D14*
G04 #@! TO.P,S65,2*
G04 #@! TO.N,/S65*
X137160000Y-118745000D03*
D15*
G04 #@! TO.P,S65,1*
G04 #@! TO.N,GND*
X130810000Y-121081800D03*
D14*
X129540000Y-118745000D03*
D15*
G04 #@! TO.P,S65,2*
G04 #@! TO.N,/S65*
X135890000Y-121081800D03*
D11*
G04 #@! TO.P,S65,1*
G04 #@! TO.N,GND*
X126650000Y-116205000D03*
X126650000Y-117205000D03*
X126650000Y-115205000D03*
G04 #@! TD*
D10*
G04 #@! TO.P,S11,0*
G04 #@! TO.N,N/C*
X36830000Y-33020000D03*
X39370000Y-33020000D03*
D11*
G04 #@! TO.P,S11,2*
G04 #@! TO.N,/S11*
X44800000Y-39100000D03*
X44800000Y-37100000D03*
X44800000Y-38100000D03*
D12*
G04 #@! TO.P,S11,0*
G04 #@! TO.N,N/C*
X38100000Y-38100000D03*
D13*
G04 #@! TO.P,S11,2*
G04 #@! TO.N,/S11*
X43180000Y-38100000D03*
G04 #@! TO.P,S11,1*
G04 #@! TO.N,GND*
X33020000Y-38100000D03*
D14*
G04 #@! TO.P,S11,2*
G04 #@! TO.N,/S11*
X41910000Y-40640000D03*
D15*
G04 #@! TO.P,S11,1*
G04 #@! TO.N,GND*
X35560000Y-42976800D03*
D14*
X34290000Y-40640000D03*
D15*
G04 #@! TO.P,S11,2*
G04 #@! TO.N,/S11*
X40640000Y-42976800D03*
D11*
G04 #@! TO.P,S11,1*
G04 #@! TO.N,GND*
X31400000Y-38100000D03*
X31400000Y-39100000D03*
X31400000Y-37100000D03*
G04 #@! TD*
D10*
G04 #@! TO.P,S12,0*
G04 #@! TO.N,N/C*
X36830000Y-52070000D03*
X39370000Y-52070000D03*
D11*
G04 #@! TO.P,S12,2*
G04 #@! TO.N,/S12*
X44800000Y-58150000D03*
X44800000Y-56150000D03*
X44800000Y-57150000D03*
D12*
G04 #@! TO.P,S12,0*
G04 #@! TO.N,N/C*
X38100000Y-57150000D03*
D13*
G04 #@! TO.P,S12,2*
G04 #@! TO.N,/S12*
X43180000Y-57150000D03*
G04 #@! TO.P,S12,1*
G04 #@! TO.N,GND*
X33020000Y-57150000D03*
D14*
G04 #@! TO.P,S12,2*
G04 #@! TO.N,/S12*
X41910000Y-59690000D03*
D15*
G04 #@! TO.P,S12,1*
G04 #@! TO.N,GND*
X35560000Y-62026800D03*
D14*
X34290000Y-59690000D03*
D15*
G04 #@! TO.P,S12,2*
G04 #@! TO.N,/S12*
X40640000Y-62026800D03*
D11*
G04 #@! TO.P,S12,1*
G04 #@! TO.N,GND*
X31400000Y-57150000D03*
X31400000Y-58150000D03*
X31400000Y-56150000D03*
G04 #@! TD*
D10*
G04 #@! TO.P,S13,0*
G04 #@! TO.N,N/C*
X36830000Y-71120000D03*
X39370000Y-71120000D03*
D11*
G04 #@! TO.P,S13,2*
G04 #@! TO.N,/S13*
X44800000Y-77200000D03*
X44800000Y-75200000D03*
X44800000Y-76200000D03*
D12*
G04 #@! TO.P,S13,0*
G04 #@! TO.N,N/C*
X38100000Y-76200000D03*
D13*
G04 #@! TO.P,S13,2*
G04 #@! TO.N,/S13*
X43180000Y-76200000D03*
G04 #@! TO.P,S13,1*
G04 #@! TO.N,GND*
X33020000Y-76200000D03*
D14*
G04 #@! TO.P,S13,2*
G04 #@! TO.N,/S13*
X41910000Y-78740000D03*
D15*
G04 #@! TO.P,S13,1*
G04 #@! TO.N,GND*
X35560000Y-81076800D03*
D14*
X34290000Y-78740000D03*
D15*
G04 #@! TO.P,S13,2*
G04 #@! TO.N,/S13*
X40640000Y-81076800D03*
D11*
G04 #@! TO.P,S13,1*
G04 #@! TO.N,GND*
X31400000Y-76200000D03*
X31400000Y-77200000D03*
X31400000Y-75200000D03*
G04 #@! TD*
D10*
G04 #@! TO.P,S14,0*
G04 #@! TO.N,N/C*
X36830000Y-90170000D03*
X39370000Y-90170000D03*
D11*
G04 #@! TO.P,S14,2*
G04 #@! TO.N,/S14*
X44800000Y-96250000D03*
X44800000Y-94250000D03*
X44800000Y-95250000D03*
D12*
G04 #@! TO.P,S14,0*
G04 #@! TO.N,N/C*
X38100000Y-95250000D03*
D13*
G04 #@! TO.P,S14,2*
G04 #@! TO.N,/S14*
X43180000Y-95250000D03*
G04 #@! TO.P,S14,1*
G04 #@! TO.N,GND*
X33020000Y-95250000D03*
D14*
G04 #@! TO.P,S14,2*
G04 #@! TO.N,/S14*
X41910000Y-97790000D03*
D15*
G04 #@! TO.P,S14,1*
G04 #@! TO.N,GND*
X35560000Y-100126800D03*
D14*
X34290000Y-97790000D03*
D15*
G04 #@! TO.P,S14,2*
G04 #@! TO.N,/S14*
X40640000Y-100126800D03*
D11*
G04 #@! TO.P,S14,1*
G04 #@! TO.N,GND*
X31400000Y-95250000D03*
X31400000Y-96250000D03*
X31400000Y-94250000D03*
G04 #@! TD*
D10*
G04 #@! TO.P,S21,0*
G04 #@! TO.N,N/C*
X55880000Y-33020000D03*
X58420000Y-33020000D03*
D11*
G04 #@! TO.P,S21,2*
G04 #@! TO.N,/S21*
X63850000Y-39100000D03*
X63850000Y-37100000D03*
X63850000Y-38100000D03*
D12*
G04 #@! TO.P,S21,0*
G04 #@! TO.N,N/C*
X57150000Y-38100000D03*
D13*
G04 #@! TO.P,S21,2*
G04 #@! TO.N,/S21*
X62230000Y-38100000D03*
G04 #@! TO.P,S21,1*
G04 #@! TO.N,GND*
X52070000Y-38100000D03*
D14*
G04 #@! TO.P,S21,2*
G04 #@! TO.N,/S21*
X60960000Y-40640000D03*
D15*
G04 #@! TO.P,S21,1*
G04 #@! TO.N,GND*
X54610000Y-42976800D03*
D14*
X53340000Y-40640000D03*
D15*
G04 #@! TO.P,S21,2*
G04 #@! TO.N,/S21*
X59690000Y-42976800D03*
D11*
G04 #@! TO.P,S21,1*
G04 #@! TO.N,GND*
X50450000Y-38100000D03*
X50450000Y-39100000D03*
X50450000Y-37100000D03*
G04 #@! TD*
D10*
G04 #@! TO.P,S22,0*
G04 #@! TO.N,N/C*
X55880000Y-52070000D03*
X58420000Y-52070000D03*
D11*
G04 #@! TO.P,S22,2*
G04 #@! TO.N,/S22*
X63850000Y-58150000D03*
X63850000Y-56150000D03*
X63850000Y-57150000D03*
D12*
G04 #@! TO.P,S22,0*
G04 #@! TO.N,N/C*
X57150000Y-57150000D03*
D13*
G04 #@! TO.P,S22,2*
G04 #@! TO.N,/S22*
X62230000Y-57150000D03*
G04 #@! TO.P,S22,1*
G04 #@! TO.N,GND*
X52070000Y-57150000D03*
D14*
G04 #@! TO.P,S22,2*
G04 #@! TO.N,/S22*
X60960000Y-59690000D03*
D15*
G04 #@! TO.P,S22,1*
G04 #@! TO.N,GND*
X54610000Y-62026800D03*
D14*
X53340000Y-59690000D03*
D15*
G04 #@! TO.P,S22,2*
G04 #@! TO.N,/S22*
X59690000Y-62026800D03*
D11*
G04 #@! TO.P,S22,1*
G04 #@! TO.N,GND*
X50450000Y-57150000D03*
X50450000Y-58150000D03*
X50450000Y-56150000D03*
G04 #@! TD*
D10*
G04 #@! TO.P,S23,0*
G04 #@! TO.N,N/C*
X55880000Y-71120000D03*
X58420000Y-71120000D03*
D11*
G04 #@! TO.P,S23,2*
G04 #@! TO.N,/S23*
X63850000Y-77200000D03*
X63850000Y-75200000D03*
X63850000Y-76200000D03*
D12*
G04 #@! TO.P,S23,0*
G04 #@! TO.N,N/C*
X57150000Y-76200000D03*
D13*
G04 #@! TO.P,S23,2*
G04 #@! TO.N,/S23*
X62230000Y-76200000D03*
G04 #@! TO.P,S23,1*
G04 #@! TO.N,GND*
X52070000Y-76200000D03*
D14*
G04 #@! TO.P,S23,2*
G04 #@! TO.N,/S23*
X60960000Y-78740000D03*
D15*
G04 #@! TO.P,S23,1*
G04 #@! TO.N,GND*
X54610000Y-81076800D03*
D14*
X53340000Y-78740000D03*
D15*
G04 #@! TO.P,S23,2*
G04 #@! TO.N,/S23*
X59690000Y-81076800D03*
D11*
G04 #@! TO.P,S23,1*
G04 #@! TO.N,GND*
X50450000Y-76200000D03*
X50450000Y-77200000D03*
X50450000Y-75200000D03*
G04 #@! TD*
D10*
G04 #@! TO.P,S24,0*
G04 #@! TO.N,N/C*
X55880000Y-90170000D03*
X58420000Y-90170000D03*
D11*
G04 #@! TO.P,S24,2*
G04 #@! TO.N,/S24*
X63850000Y-96250000D03*
X63850000Y-94250000D03*
X63850000Y-95250000D03*
D12*
G04 #@! TO.P,S24,0*
G04 #@! TO.N,N/C*
X57150000Y-95250000D03*
D13*
G04 #@! TO.P,S24,2*
G04 #@! TO.N,/S24*
X62230000Y-95250000D03*
G04 #@! TO.P,S24,1*
G04 #@! TO.N,GND*
X52070000Y-95250000D03*
D14*
G04 #@! TO.P,S24,2*
G04 #@! TO.N,/S24*
X60960000Y-97790000D03*
D15*
G04 #@! TO.P,S24,1*
G04 #@! TO.N,GND*
X54610000Y-100126800D03*
D14*
X53340000Y-97790000D03*
D15*
G04 #@! TO.P,S24,2*
G04 #@! TO.N,/S24*
X59690000Y-100126800D03*
D11*
G04 #@! TO.P,S24,1*
G04 #@! TO.N,GND*
X50450000Y-95250000D03*
X50450000Y-96250000D03*
X50450000Y-94250000D03*
G04 #@! TD*
D10*
G04 #@! TO.P,S31,0*
G04 #@! TO.N,N/C*
X74930000Y-28257500D03*
X77470000Y-28257500D03*
D11*
G04 #@! TO.P,S31,2*
G04 #@! TO.N,/S31*
X82900000Y-34337500D03*
X82900000Y-32337500D03*
X82900000Y-33337500D03*
D12*
G04 #@! TO.P,S31,0*
G04 #@! TO.N,N/C*
X76200000Y-33337500D03*
D13*
G04 #@! TO.P,S31,2*
G04 #@! TO.N,/S31*
X81280000Y-33337500D03*
G04 #@! TO.P,S31,1*
G04 #@! TO.N,GND*
X71120000Y-33337500D03*
D14*
G04 #@! TO.P,S31,2*
G04 #@! TO.N,/S31*
X80010000Y-35877500D03*
D15*
G04 #@! TO.P,S31,1*
G04 #@! TO.N,GND*
X73660000Y-38214300D03*
D14*
X72390000Y-35877500D03*
D15*
G04 #@! TO.P,S31,2*
G04 #@! TO.N,/S31*
X78740000Y-38214300D03*
D11*
G04 #@! TO.P,S31,1*
G04 #@! TO.N,GND*
X69500000Y-33337500D03*
X69500000Y-34337500D03*
X69500000Y-32337500D03*
G04 #@! TD*
D10*
G04 #@! TO.P,S32,0*
G04 #@! TO.N,N/C*
X74930000Y-47307500D03*
X77470000Y-47307500D03*
D11*
G04 #@! TO.P,S32,2*
G04 #@! TO.N,/S32*
X82900000Y-53387500D03*
X82900000Y-51387500D03*
X82900000Y-52387500D03*
D12*
G04 #@! TO.P,S32,0*
G04 #@! TO.N,N/C*
X76200000Y-52387500D03*
D13*
G04 #@! TO.P,S32,2*
G04 #@! TO.N,/S32*
X81280000Y-52387500D03*
G04 #@! TO.P,S32,1*
G04 #@! TO.N,GND*
X71120000Y-52387500D03*
D14*
G04 #@! TO.P,S32,2*
G04 #@! TO.N,/S32*
X80010000Y-54927500D03*
D15*
G04 #@! TO.P,S32,1*
G04 #@! TO.N,GND*
X73660000Y-57264300D03*
D14*
X72390000Y-54927500D03*
D15*
G04 #@! TO.P,S32,2*
G04 #@! TO.N,/S32*
X78740000Y-57264300D03*
D11*
G04 #@! TO.P,S32,1*
G04 #@! TO.N,GND*
X69500000Y-52387500D03*
X69500000Y-53387500D03*
X69500000Y-51387500D03*
G04 #@! TD*
D10*
G04 #@! TO.P,S33,0*
G04 #@! TO.N,N/C*
X74930000Y-66357500D03*
X77470000Y-66357500D03*
D11*
G04 #@! TO.P,S33,2*
G04 #@! TO.N,/S33*
X82900000Y-72437500D03*
X82900000Y-70437500D03*
X82900000Y-71437500D03*
D12*
G04 #@! TO.P,S33,0*
G04 #@! TO.N,N/C*
X76200000Y-71437500D03*
D13*
G04 #@! TO.P,S33,2*
G04 #@! TO.N,/S33*
X81280000Y-71437500D03*
G04 #@! TO.P,S33,1*
G04 #@! TO.N,GND*
X71120000Y-71437500D03*
D14*
G04 #@! TO.P,S33,2*
G04 #@! TO.N,/S33*
X80010000Y-73977500D03*
D15*
G04 #@! TO.P,S33,1*
G04 #@! TO.N,GND*
X73660000Y-76314300D03*
D14*
X72390000Y-73977500D03*
D15*
G04 #@! TO.P,S33,2*
G04 #@! TO.N,/S33*
X78740000Y-76314300D03*
D11*
G04 #@! TO.P,S33,1*
G04 #@! TO.N,GND*
X69500000Y-71437500D03*
X69500000Y-72437500D03*
X69500000Y-70437500D03*
G04 #@! TD*
D10*
G04 #@! TO.P,S34,0*
G04 #@! TO.N,N/C*
X74930000Y-85407500D03*
X77470000Y-85407500D03*
D11*
G04 #@! TO.P,S34,2*
G04 #@! TO.N,/S34*
X82900000Y-91487500D03*
X82900000Y-89487500D03*
X82900000Y-90487500D03*
D12*
G04 #@! TO.P,S34,0*
G04 #@! TO.N,N/C*
X76200000Y-90487500D03*
D13*
G04 #@! TO.P,S34,2*
G04 #@! TO.N,/S34*
X81280000Y-90487500D03*
G04 #@! TO.P,S34,1*
G04 #@! TO.N,GND*
X71120000Y-90487500D03*
D14*
G04 #@! TO.P,S34,2*
G04 #@! TO.N,/S34*
X80010000Y-93027500D03*
D15*
G04 #@! TO.P,S34,1*
G04 #@! TO.N,GND*
X73660000Y-95364300D03*
D14*
X72390000Y-93027500D03*
D15*
G04 #@! TO.P,S34,2*
G04 #@! TO.N,/S34*
X78740000Y-95364300D03*
D11*
G04 #@! TO.P,S34,1*
G04 #@! TO.N,GND*
X69500000Y-90487500D03*
X69500000Y-91487500D03*
X69500000Y-89487500D03*
G04 #@! TD*
D10*
G04 #@! TO.P,S41,0*
G04 #@! TO.N,N/C*
X93980000Y-23495000D03*
X96520000Y-23495000D03*
D11*
G04 #@! TO.P,S41,2*
G04 #@! TO.N,/S41*
X101950000Y-29575000D03*
X101950000Y-27575000D03*
X101950000Y-28575000D03*
D12*
G04 #@! TO.P,S41,0*
G04 #@! TO.N,N/C*
X95250000Y-28575000D03*
D13*
G04 #@! TO.P,S41,2*
G04 #@! TO.N,/S41*
X100330000Y-28575000D03*
G04 #@! TO.P,S41,1*
G04 #@! TO.N,GND*
X90170000Y-28575000D03*
D14*
G04 #@! TO.P,S41,2*
G04 #@! TO.N,/S41*
X99060000Y-31115000D03*
D15*
G04 #@! TO.P,S41,1*
G04 #@! TO.N,GND*
X92710000Y-33451800D03*
D14*
X91440000Y-31115000D03*
D15*
G04 #@! TO.P,S41,2*
G04 #@! TO.N,/S41*
X97790000Y-33451800D03*
D11*
G04 #@! TO.P,S41,1*
G04 #@! TO.N,GND*
X88550000Y-28575000D03*
X88550000Y-29575000D03*
X88550000Y-27575000D03*
G04 #@! TD*
D10*
G04 #@! TO.P,S42,0*
G04 #@! TO.N,N/C*
X93980000Y-42545000D03*
X96520000Y-42545000D03*
D11*
G04 #@! TO.P,S42,2*
G04 #@! TO.N,/S42*
X101950000Y-48625000D03*
X101950000Y-46625000D03*
X101950000Y-47625000D03*
D12*
G04 #@! TO.P,S42,0*
G04 #@! TO.N,N/C*
X95250000Y-47625000D03*
D13*
G04 #@! TO.P,S42,2*
G04 #@! TO.N,/S42*
X100330000Y-47625000D03*
G04 #@! TO.P,S42,1*
G04 #@! TO.N,GND*
X90170000Y-47625000D03*
D14*
G04 #@! TO.P,S42,2*
G04 #@! TO.N,/S42*
X99060000Y-50165000D03*
D15*
G04 #@! TO.P,S42,1*
G04 #@! TO.N,GND*
X92710000Y-52501800D03*
D14*
X91440000Y-50165000D03*
D15*
G04 #@! TO.P,S42,2*
G04 #@! TO.N,/S42*
X97790000Y-52501800D03*
D11*
G04 #@! TO.P,S42,1*
G04 #@! TO.N,GND*
X88550000Y-47625000D03*
X88550000Y-48625000D03*
X88550000Y-46625000D03*
G04 #@! TD*
D10*
G04 #@! TO.P,S43,0*
G04 #@! TO.N,N/C*
X93980000Y-61595000D03*
X96520000Y-61595000D03*
D11*
G04 #@! TO.P,S43,2*
G04 #@! TO.N,/S43*
X101950000Y-67675000D03*
X101950000Y-65675000D03*
X101950000Y-66675000D03*
D12*
G04 #@! TO.P,S43,0*
G04 #@! TO.N,N/C*
X95250000Y-66675000D03*
D13*
G04 #@! TO.P,S43,2*
G04 #@! TO.N,/S43*
X100330000Y-66675000D03*
G04 #@! TO.P,S43,1*
G04 #@! TO.N,GND*
X90170000Y-66675000D03*
D14*
G04 #@! TO.P,S43,2*
G04 #@! TO.N,/S43*
X99060000Y-69215000D03*
D15*
G04 #@! TO.P,S43,1*
G04 #@! TO.N,GND*
X92710000Y-71551800D03*
D14*
X91440000Y-69215000D03*
D15*
G04 #@! TO.P,S43,2*
G04 #@! TO.N,/S43*
X97790000Y-71551800D03*
D11*
G04 #@! TO.P,S43,1*
G04 #@! TO.N,GND*
X88550000Y-66675000D03*
X88550000Y-67675000D03*
X88550000Y-65675000D03*
G04 #@! TD*
D10*
G04 #@! TO.P,S44,0*
G04 #@! TO.N,N/C*
X93980000Y-80645000D03*
X96520000Y-80645000D03*
D11*
G04 #@! TO.P,S44,2*
G04 #@! TO.N,/S44*
X101950000Y-86725000D03*
X101950000Y-84725000D03*
X101950000Y-85725000D03*
D12*
G04 #@! TO.P,S44,0*
G04 #@! TO.N,N/C*
X95250000Y-85725000D03*
D13*
G04 #@! TO.P,S44,2*
G04 #@! TO.N,/S44*
X100330000Y-85725000D03*
G04 #@! TO.P,S44,1*
G04 #@! TO.N,GND*
X90170000Y-85725000D03*
D14*
G04 #@! TO.P,S44,2*
G04 #@! TO.N,/S44*
X99060000Y-88265000D03*
D15*
G04 #@! TO.P,S44,1*
G04 #@! TO.N,GND*
X92710000Y-90601800D03*
D14*
X91440000Y-88265000D03*
D15*
G04 #@! TO.P,S44,2*
G04 #@! TO.N,/S44*
X97790000Y-90601800D03*
D11*
G04 #@! TO.P,S44,1*
G04 #@! TO.N,GND*
X88550000Y-85725000D03*
X88550000Y-86725000D03*
X88550000Y-84725000D03*
G04 #@! TD*
D10*
G04 #@! TO.P,S45,0*
G04 #@! TO.N,N/C*
X93980000Y-99695000D03*
X96520000Y-99695000D03*
D11*
G04 #@! TO.P,S45,2*
G04 #@! TO.N,/S45*
X101950000Y-105775000D03*
X101950000Y-103775000D03*
X101950000Y-104775000D03*
D12*
G04 #@! TO.P,S45,0*
G04 #@! TO.N,N/C*
X95250000Y-104775000D03*
D13*
G04 #@! TO.P,S45,2*
G04 #@! TO.N,/S45*
X100330000Y-104775000D03*
G04 #@! TO.P,S45,1*
G04 #@! TO.N,GND*
X90170000Y-104775000D03*
D14*
G04 #@! TO.P,S45,2*
G04 #@! TO.N,/S45*
X99060000Y-107315000D03*
D15*
G04 #@! TO.P,S45,1*
G04 #@! TO.N,GND*
X92710000Y-109651800D03*
D14*
X91440000Y-107315000D03*
D15*
G04 #@! TO.P,S45,2*
G04 #@! TO.N,/S45*
X97790000Y-109651800D03*
D11*
G04 #@! TO.P,S45,1*
G04 #@! TO.N,GND*
X88550000Y-104775000D03*
X88550000Y-105775000D03*
X88550000Y-103775000D03*
G04 #@! TD*
D10*
G04 #@! TO.P,S51,0*
G04 #@! TO.N,N/C*
X113030000Y-28257500D03*
X115570000Y-28257500D03*
D11*
G04 #@! TO.P,S51,2*
G04 #@! TO.N,/S51*
X121000000Y-34337500D03*
X121000000Y-32337500D03*
X121000000Y-33337500D03*
D12*
G04 #@! TO.P,S51,0*
G04 #@! TO.N,N/C*
X114300000Y-33337500D03*
D13*
G04 #@! TO.P,S51,2*
G04 #@! TO.N,/S51*
X119380000Y-33337500D03*
G04 #@! TO.P,S51,1*
G04 #@! TO.N,GND*
X109220000Y-33337500D03*
D14*
G04 #@! TO.P,S51,2*
G04 #@! TO.N,/S51*
X118110000Y-35877500D03*
D15*
G04 #@! TO.P,S51,1*
G04 #@! TO.N,GND*
X111760000Y-38214300D03*
D14*
X110490000Y-35877500D03*
D15*
G04 #@! TO.P,S51,2*
G04 #@! TO.N,/S51*
X116840000Y-38214300D03*
D11*
G04 #@! TO.P,S51,1*
G04 #@! TO.N,GND*
X107600000Y-33337500D03*
X107600000Y-34337500D03*
X107600000Y-32337500D03*
G04 #@! TD*
D10*
G04 #@! TO.P,S52,0*
G04 #@! TO.N,N/C*
X113030000Y-47307500D03*
X115570000Y-47307500D03*
D11*
G04 #@! TO.P,S52,2*
G04 #@! TO.N,/S52*
X121000000Y-53387500D03*
X121000000Y-51387500D03*
X121000000Y-52387500D03*
D12*
G04 #@! TO.P,S52,0*
G04 #@! TO.N,N/C*
X114300000Y-52387500D03*
D13*
G04 #@! TO.P,S52,2*
G04 #@! TO.N,/S52*
X119380000Y-52387500D03*
G04 #@! TO.P,S52,1*
G04 #@! TO.N,GND*
X109220000Y-52387500D03*
D14*
G04 #@! TO.P,S52,2*
G04 #@! TO.N,/S52*
X118110000Y-54927500D03*
D15*
G04 #@! TO.P,S52,1*
G04 #@! TO.N,GND*
X111760000Y-57264300D03*
D14*
X110490000Y-54927500D03*
D15*
G04 #@! TO.P,S52,2*
G04 #@! TO.N,/S52*
X116840000Y-57264300D03*
D11*
G04 #@! TO.P,S52,1*
G04 #@! TO.N,GND*
X107600000Y-52387500D03*
X107600000Y-53387500D03*
X107600000Y-51387500D03*
G04 #@! TD*
D10*
G04 #@! TO.P,S53,0*
G04 #@! TO.N,N/C*
X113030000Y-66357500D03*
X115570000Y-66357500D03*
D11*
G04 #@! TO.P,S53,2*
G04 #@! TO.N,/S53*
X121000000Y-72437500D03*
X121000000Y-70437500D03*
X121000000Y-71437500D03*
D12*
G04 #@! TO.P,S53,0*
G04 #@! TO.N,N/C*
X114300000Y-71437500D03*
D13*
G04 #@! TO.P,S53,2*
G04 #@! TO.N,/S53*
X119380000Y-71437500D03*
G04 #@! TO.P,S53,1*
G04 #@! TO.N,GND*
X109220000Y-71437500D03*
D14*
G04 #@! TO.P,S53,2*
G04 #@! TO.N,/S53*
X118110000Y-73977500D03*
D15*
G04 #@! TO.P,S53,1*
G04 #@! TO.N,GND*
X111760000Y-76314300D03*
D14*
X110490000Y-73977500D03*
D15*
G04 #@! TO.P,S53,2*
G04 #@! TO.N,/S53*
X116840000Y-76314300D03*
D11*
G04 #@! TO.P,S53,1*
G04 #@! TO.N,GND*
X107600000Y-71437500D03*
X107600000Y-72437500D03*
X107600000Y-70437500D03*
G04 #@! TD*
D10*
G04 #@! TO.P,S54,0*
G04 #@! TO.N,N/C*
X113030000Y-85407500D03*
X115570000Y-85407500D03*
D11*
G04 #@! TO.P,S54,2*
G04 #@! TO.N,/S54*
X121000000Y-91487500D03*
X121000000Y-89487500D03*
X121000000Y-90487500D03*
D12*
G04 #@! TO.P,S54,0*
G04 #@! TO.N,N/C*
X114300000Y-90487500D03*
D13*
G04 #@! TO.P,S54,2*
G04 #@! TO.N,/S54*
X119380000Y-90487500D03*
G04 #@! TO.P,S54,1*
G04 #@! TO.N,GND*
X109220000Y-90487500D03*
D14*
G04 #@! TO.P,S54,2*
G04 #@! TO.N,/S54*
X118110000Y-93027500D03*
D15*
G04 #@! TO.P,S54,1*
G04 #@! TO.N,GND*
X111760000Y-95364300D03*
D14*
X110490000Y-93027500D03*
D15*
G04 #@! TO.P,S54,2*
G04 #@! TO.N,/S54*
X116840000Y-95364300D03*
D11*
G04 #@! TO.P,S54,1*
G04 #@! TO.N,GND*
X107600000Y-90487500D03*
X107600000Y-91487500D03*
X107600000Y-89487500D03*
G04 #@! TD*
D10*
G04 #@! TO.P,S55,0*
G04 #@! TO.N,N/C*
X113030000Y-104457500D03*
X115570000Y-104457500D03*
D11*
G04 #@! TO.P,S55,2*
G04 #@! TO.N,/S55*
X121000000Y-110537500D03*
X121000000Y-108537500D03*
X121000000Y-109537500D03*
D12*
G04 #@! TO.P,S55,0*
G04 #@! TO.N,N/C*
X114300000Y-109537500D03*
D13*
G04 #@! TO.P,S55,2*
G04 #@! TO.N,/S55*
X119380000Y-109537500D03*
G04 #@! TO.P,S55,1*
G04 #@! TO.N,GND*
X109220000Y-109537500D03*
D14*
G04 #@! TO.P,S55,2*
G04 #@! TO.N,/S55*
X118110000Y-112077500D03*
D15*
G04 #@! TO.P,S55,1*
G04 #@! TO.N,GND*
X111760000Y-114414300D03*
D14*
X110490000Y-112077500D03*
D15*
G04 #@! TO.P,S55,2*
G04 #@! TO.N,/S55*
X116840000Y-114414300D03*
D11*
G04 #@! TO.P,S55,1*
G04 #@! TO.N,GND*
X107600000Y-109537500D03*
X107600000Y-110537500D03*
X107600000Y-108537500D03*
G04 #@! TD*
D10*
G04 #@! TO.P,S61,0*
G04 #@! TO.N,N/C*
X132080000Y-34925000D03*
X134620000Y-34925000D03*
D11*
G04 #@! TO.P,S61,2*
G04 #@! TO.N,/S61*
X140050000Y-41005000D03*
X140050000Y-39005000D03*
X140050000Y-40005000D03*
D12*
G04 #@! TO.P,S61,0*
G04 #@! TO.N,N/C*
X133350000Y-40005000D03*
D13*
G04 #@! TO.P,S61,2*
G04 #@! TO.N,/S61*
X138430000Y-40005000D03*
G04 #@! TO.P,S61,1*
G04 #@! TO.N,GND*
X128270000Y-40005000D03*
D14*
G04 #@! TO.P,S61,2*
G04 #@! TO.N,/S61*
X137160000Y-42545000D03*
D15*
G04 #@! TO.P,S61,1*
G04 #@! TO.N,GND*
X130810000Y-44881800D03*
D14*
X129540000Y-42545000D03*
D15*
G04 #@! TO.P,S61,2*
G04 #@! TO.N,/S61*
X135890000Y-44881800D03*
D11*
G04 #@! TO.P,S61,1*
G04 #@! TO.N,GND*
X126650000Y-40005000D03*
X126650000Y-41005000D03*
X126650000Y-39005000D03*
G04 #@! TD*
D10*
G04 #@! TO.P,S62,0*
G04 #@! TO.N,N/C*
X132080000Y-53975000D03*
X134620000Y-53975000D03*
D11*
G04 #@! TO.P,S62,2*
G04 #@! TO.N,/S62*
X140050000Y-60055000D03*
X140050000Y-58055000D03*
X140050000Y-59055000D03*
D12*
G04 #@! TO.P,S62,0*
G04 #@! TO.N,N/C*
X133350000Y-59055000D03*
D13*
G04 #@! TO.P,S62,2*
G04 #@! TO.N,/S62*
X138430000Y-59055000D03*
G04 #@! TO.P,S62,1*
G04 #@! TO.N,GND*
X128270000Y-59055000D03*
D14*
G04 #@! TO.P,S62,2*
G04 #@! TO.N,/S62*
X137160000Y-61595000D03*
D15*
G04 #@! TO.P,S62,1*
G04 #@! TO.N,GND*
X130810000Y-63931800D03*
D14*
X129540000Y-61595000D03*
D15*
G04 #@! TO.P,S62,2*
G04 #@! TO.N,/S62*
X135890000Y-63931800D03*
D11*
G04 #@! TO.P,S62,1*
G04 #@! TO.N,GND*
X126650000Y-59055000D03*
X126650000Y-60055000D03*
X126650000Y-58055000D03*
G04 #@! TD*
D10*
G04 #@! TO.P,S63,0*
G04 #@! TO.N,N/C*
X132080000Y-73025000D03*
X134620000Y-73025000D03*
D11*
G04 #@! TO.P,S63,2*
G04 #@! TO.N,/S63*
X140050000Y-79105000D03*
X140050000Y-77105000D03*
X140050000Y-78105000D03*
D12*
G04 #@! TO.P,S63,0*
G04 #@! TO.N,N/C*
X133350000Y-78105000D03*
D13*
G04 #@! TO.P,S63,2*
G04 #@! TO.N,/S63*
X138430000Y-78105000D03*
G04 #@! TO.P,S63,1*
G04 #@! TO.N,GND*
X128270000Y-78105000D03*
D14*
G04 #@! TO.P,S63,2*
G04 #@! TO.N,/S63*
X137160000Y-80645000D03*
D15*
G04 #@! TO.P,S63,1*
G04 #@! TO.N,GND*
X130810000Y-82981800D03*
D14*
X129540000Y-80645000D03*
D15*
G04 #@! TO.P,S63,2*
G04 #@! TO.N,/S63*
X135890000Y-82981800D03*
D11*
G04 #@! TO.P,S63,1*
G04 #@! TO.N,GND*
X126650000Y-78105000D03*
X126650000Y-79105000D03*
X126650000Y-77105000D03*
G04 #@! TD*
D10*
G04 #@! TO.P,S64,0*
G04 #@! TO.N,N/C*
X132080000Y-92075000D03*
X134620000Y-92075000D03*
D11*
G04 #@! TO.P,S64,2*
G04 #@! TO.N,/S64*
X140050000Y-98155000D03*
X140050000Y-96155000D03*
X140050000Y-97155000D03*
D12*
G04 #@! TO.P,S64,0*
G04 #@! TO.N,N/C*
X133350000Y-97155000D03*
D13*
G04 #@! TO.P,S64,2*
G04 #@! TO.N,/S64*
X138430000Y-97155000D03*
G04 #@! TO.P,S64,1*
G04 #@! TO.N,GND*
X128270000Y-97155000D03*
D14*
G04 #@! TO.P,S64,2*
G04 #@! TO.N,/S64*
X137160000Y-99695000D03*
D15*
G04 #@! TO.P,S64,1*
G04 #@! TO.N,GND*
X130810000Y-102031800D03*
D14*
X129540000Y-99695000D03*
D15*
G04 #@! TO.P,S64,2*
G04 #@! TO.N,/S64*
X135890000Y-102031800D03*
D11*
G04 #@! TO.P,S64,1*
G04 #@! TO.N,GND*
X126650000Y-97155000D03*
X126650000Y-98155000D03*
X126650000Y-96155000D03*
G04 #@! TD*
D16*
G04 #@! TO.P,D2,P10*
G04 #@! TO.N,/S32*
X49452500Y-108250000D03*
G04 #@! TO.P,D2,P09*
G04 #@! TO.N,/S31*
X49452500Y-109350000D03*
G04 #@! TO.P,D2,P08*
G04 #@! TO.N,/S45*
X49452500Y-110450000D03*
G04 #@! TO.P,D2,P07*
G04 #@! TO.N,/S44*
X49452500Y-111550000D03*
G04 #@! TO.P,D2,P06*
G04 #@! TO.N,/S43*
X49452500Y-112650000D03*
G04 #@! TO.P,D2,P05*
G04 #@! TO.N,/S42*
X49452500Y-113750000D03*
G04 #@! TO.P,D2,P04*
G04 #@! TO.N,/S41*
X49452500Y-114850000D03*
G04 #@! TO.P,D2,P03*
G04 #@! TO.N,/S54*
X49452500Y-115950000D03*
G04 #@! TO.P,D2,P02*
G04 #@! TO.N,/S53*
X49452500Y-117050000D03*
G04 #@! TO.P,D2,P01*
G04 #@! TO.N,/S52*
X49452500Y-118150000D03*
G04 #@! TO.P,D2,P00*
G04 #@! TO.N,/S51*
X49452500Y-119250000D03*
G04 #@! TO.P,D2,P30*
G04 #@! TO.N,/S55*
X49452500Y-120350000D03*
D17*
G04 #@! TO.P,D2,P11*
G04 #@! TO.N,/S33*
X47052500Y-106400000D03*
G04 #@! TO.P,D2,P12*
G04 #@! TO.N,/S34*
X45952500Y-106400000D03*
G04 #@! TO.P,D2,P13*
G04 #@! TO.N,/S21*
X44852500Y-106400000D03*
G04 #@! TO.P,D2,P14*
G04 #@! TO.N,/S22*
X43752500Y-106400000D03*
G04 #@! TO.P,D2,P15*
G04 #@! TO.N,/S23*
X42652500Y-106400000D03*
G04 #@! TO.P,D2,P16*
G04 #@! TO.N,/S24*
X41552500Y-106400000D03*
G04 #@! TO.P,D2,SWD*
G04 #@! TO.N,/SWDIO*
X40452500Y-106400000D03*
G04 #@! TO.P,D2,SCK*
G04 #@! TO.N,/SWCLK*
X39352500Y-106400000D03*
G04 #@! TO.P,D2,P17*
G04 #@! TO.N,/S11*
X38252500Y-106400000D03*
G04 #@! TO.P,D2,P18*
G04 #@! TO.N,/S12*
X37152500Y-106400000D03*
G04 #@! TO.P,D2,P19*
G04 #@! TO.N,/S13*
X36052500Y-106400000D03*
G04 #@! TO.P,D2,P20*
G04 #@! TO.N,/S14*
X34952500Y-106400000D03*
G04 #@! TO.P,D2,VCC*
G04 #@! TO.N,/VCC*
X47052500Y-122200000D03*
G04 #@! TO.P,D2,GND*
G04 #@! TO.N,GND*
X45952500Y-122200000D03*
G04 #@! TO.P,D2,P29*
G04 #@! TO.N,/S61*
X44852500Y-122200000D03*
G04 #@! TO.P,D2,P28*
G04 #@! TO.N,/S62*
X43752500Y-122200000D03*
G04 #@! TO.P,D2,NC*
G04 #@! TO.N,Net-(D2-PadNC)*
X42652500Y-122200000D03*
X41552500Y-122200000D03*
G04 #@! TO.P,D2,P25*
G04 #@! TO.N,/S63*
X40452500Y-122200000D03*
G04 #@! TO.P,D2,P24*
G04 #@! TO.N,/S64*
X39352500Y-122200000D03*
G04 #@! TO.P,D2,P23*
G04 #@! TO.N,/S65*
X38252500Y-122200000D03*
G04 #@! TO.P,D2,P22*
G04 #@! TO.N,/S71*
X37152500Y-122200000D03*
G04 #@! TO.P,D2,P21*
G04 #@! TO.N,N/C*
X36052500Y-122200000D03*
G04 #@! TO.P,D2,GND*
G04 #@! TO.N,GND*
X34952500Y-122200000D03*
G04 #@! TD*
D13*
G04 #@! TO.P,BT1,2*
G04 #@! TO.N,/GND_P*
X63547500Y-120015000D03*
G04 #@! TO.P,BT1,1*
G04 #@! TO.N,/VCC*
X86947500Y-120015000D03*
D18*
X75247500Y-120015000D03*
G04 #@! TD*
D19*
G04 #@! TO.P,J1,1*
G04 #@! TO.N,/VCC*
X39052500Y-118427500D03*
D20*
G04 #@! TO.P,J1,2*
G04 #@! TO.N,/GND_P*
X39052500Y-115887500D03*
G04 #@! TO.P,J1,3*
G04 #@! TO.N,/SWDIO*
X39052500Y-113347500D03*
G04 #@! TO.P,J1,4*
G04 #@! TO.N,/SWCLK*
X39052500Y-110807500D03*
G04 #@! TD*
D21*
G04 #@! TO.P,Q1,2*
G04 #@! TO.N,/VCC*
X57500000Y-121900000D03*
G04 #@! TO.P,Q1,1*
G04 #@! TO.N,GND*
X57500000Y-123800000D03*
G04 #@! TO.P,Q1,3*
G04 #@! TO.N,/GND_P*
X60500000Y-122850000D03*
G04 #@! TD*
D22*
G04 #@! TO.N,/GND_P*
X61912500Y-121650000D03*
G04 #@! TO.N,/VCC*
X55760000Y-122180000D03*
X55780000Y-123830000D03*
X47625000Y-123825000D03*
G04 #@! TO.N,GND*
X57110000Y-125500000D03*
X105720000Y-95020000D03*
X104130197Y-97950492D03*
X101453058Y-96750010D03*
X33337500Y-124777500D03*
G04 #@! TO.N,/S11*
X38252500Y-104822500D03*
G04 #@! TO.N,/S12*
X37152500Y-104675000D03*
G04 #@! TO.N,/S13*
X36052500Y-104475000D03*
G04 #@! TO.N,/S14*
X34950000Y-108230000D03*
G04 #@! TO.N,/S21*
X44850000Y-108250000D03*
X49325000Y-104700020D03*
G04 #@! TO.N,/S22*
X43750000Y-108275000D03*
X48480448Y-104530448D03*
G04 #@! TO.N,/S23*
X42400000Y-108175000D03*
X47914762Y-103964762D03*
G04 #@! TO.N,/S24*
X41275000Y-109175000D03*
G04 #@! TO.N,/S31*
X51200011Y-108852489D03*
G04 #@! TO.N,/S32*
X50025000Y-107000000D03*
G04 #@! TO.N,/S33*
X47933078Y-106758078D03*
X48575000Y-106000000D03*
X50625000Y-106000000D03*
G04 #@! TO.N,/S34*
X45720000Y-118110000D03*
G04 #@! TO.N,/S41*
X51175000Y-114850000D03*
G04 #@! TO.N,/S42*
X51100000Y-113750000D03*
G04 #@! TO.N,/S43*
X51286410Y-112650000D03*
G04 #@! TO.N,/S44*
X51275000Y-111550000D03*
G04 #@! TO.N,/S45*
X51875000Y-109475000D03*
X88141942Y-95991942D03*
G04 #@! TO.N,/S51*
X51225000Y-119250000D03*
G04 #@! TO.N,/S52*
X51200000Y-118150000D03*
G04 #@! TO.N,/S53*
X51250000Y-117050000D03*
G04 #@! TO.N,/S54*
X51250000Y-115950000D03*
G04 #@! TO.N,/S55*
X51250000Y-120350000D03*
G04 #@! TO.N,/S61*
X46077500Y-124075000D03*
G04 #@! TO.N,/S62*
X45002500Y-124100000D03*
G04 #@! TO.N,/S63*
X41077500Y-120475000D03*
G04 #@! TO.N,/S64*
X39925000Y-123850000D03*
G04 #@! TO.N,/S65*
X38750000Y-123947500D03*
G04 #@! TO.N,/S71*
X37602500Y-123900000D03*
G04 #@! TD*
D23*
G04 #@! TO.N,/GND_P*
X63547500Y-120015000D02*
X61912500Y-121650000D01*
X61912500Y-121650000D02*
X60690000Y-122872500D01*
X60690000Y-122872500D02*
X60555000Y-122872500D01*
X43212499Y-116737499D02*
X49347500Y-122872500D01*
X49347500Y-122872500D02*
X60555000Y-122872500D01*
X39052500Y-115887500D02*
X39902499Y-116737499D01*
X39902499Y-116737499D02*
X43212499Y-116737499D01*
G04 #@! TO.N,/VCC*
X74552500Y-114820000D02*
X65780000Y-114820000D01*
X65780000Y-114820000D02*
X58700000Y-121900000D01*
X58700000Y-121900000D02*
X57500000Y-121900000D01*
X75247500Y-120015000D02*
X75247500Y-115515000D01*
X75247500Y-115515000D02*
X74552500Y-114820000D01*
X86947500Y-120015000D02*
X75247500Y-120015000D01*
X55760000Y-122180000D02*
X56040000Y-121900000D01*
X56040000Y-121900000D02*
X57500000Y-121900000D01*
X55245000Y-123825000D02*
X55775000Y-123825000D01*
X55775000Y-123825000D02*
X55780000Y-123830000D01*
X71997500Y-120015000D02*
X75247500Y-120015000D01*
X55245000Y-123825000D02*
X54820736Y-123825000D01*
X54820736Y-123825000D02*
X47625000Y-123825000D01*
X39052500Y-118427500D02*
X43930000Y-118427500D01*
X43930000Y-118427500D02*
X47052500Y-121550000D01*
X47052500Y-121550000D02*
X47052500Y-122200000D01*
X47625000Y-123825000D02*
X47625000Y-122772500D01*
X47625000Y-122772500D02*
X47052500Y-122200000D01*
X55247500Y-123822500D02*
X55245000Y-123825000D01*
G04 #@! TO.N,GND*
X57500000Y-123800000D02*
X57500000Y-125110000D01*
X57500000Y-125110000D02*
X57110000Y-125500000D01*
X88550000Y-105775000D02*
X87950000Y-105175000D01*
X87950000Y-105175000D02*
X87950000Y-104775000D01*
X88550000Y-104775000D02*
X87950000Y-104775000D01*
X87950000Y-104775000D02*
X87630000Y-104775000D01*
X88550000Y-103775000D02*
X87950000Y-104375000D01*
X87950000Y-104375000D02*
X87950000Y-104775000D01*
X125180000Y-97155000D02*
X124970000Y-97155000D01*
X124970000Y-97155000D02*
X124777500Y-97155000D01*
X126650000Y-96155000D02*
X125650000Y-97155000D01*
X125650000Y-97155000D02*
X124970000Y-97155000D01*
X126650000Y-98155000D02*
X125650000Y-97155000D01*
X125650000Y-97155000D02*
X125180000Y-97155000D01*
X126650000Y-97155000D02*
X125180000Y-97155000D01*
X104130197Y-97950492D02*
X105720000Y-96360689D01*
X105720000Y-96360689D02*
X105720000Y-95020000D01*
X99780000Y-95975050D02*
X100678098Y-95975050D01*
X100678098Y-95975050D02*
X101453058Y-96750010D01*
X96700000Y-95975050D02*
X99780000Y-95975050D01*
X92690000Y-95975050D02*
X96700000Y-95975050D01*
X91340000Y-95975050D02*
X92690000Y-95975050D01*
X89084950Y-95975050D02*
X91340000Y-95975050D01*
X88766943Y-96003351D02*
X89056649Y-96003351D01*
X89056649Y-96003351D02*
X89084950Y-95975050D01*
X87875046Y-96620000D02*
X88438886Y-96620000D01*
X88438886Y-96620000D02*
X88766943Y-96291943D01*
X88766943Y-96291943D02*
X88766943Y-96003351D01*
X87875045Y-99466233D02*
X87875046Y-96620000D01*
X86525010Y-104395010D02*
X86525010Y-100816270D01*
X86525010Y-100816270D02*
X87875045Y-99466233D01*
X86905000Y-104775000D02*
X86525010Y-104395010D01*
X87090010Y-104775000D02*
X86905000Y-104775000D01*
X88550000Y-104775000D02*
X87090010Y-104775000D01*
X124777500Y-97155000D02*
X123825028Y-98107472D01*
X33337500Y-123215000D02*
X33337500Y-124777500D01*
X34952500Y-122200000D02*
X34352500Y-122200000D01*
X34352500Y-122200000D02*
X33337500Y-123215000D01*
X45952500Y-122200000D02*
X45952500Y-121550000D01*
X45952500Y-121550000D02*
X44252499Y-119849999D01*
X44252499Y-119849999D02*
X36652501Y-119849999D01*
X36652501Y-119849999D02*
X34952500Y-121550000D01*
X34952500Y-121550000D02*
X34952500Y-122200000D01*
X34952500Y-122200000D02*
X34952500Y-123162500D01*
D24*
X126650000Y-97155000D02*
X128270000Y-97155000D01*
D23*
X126677010Y-115964549D02*
X126677010Y-116205000D01*
X123825028Y-113112567D02*
X126677010Y-115964549D01*
X123825028Y-98107472D02*
X123825028Y-113112567D01*
D25*
G04 #@! TO.N,/S11*
X44800000Y-37100000D02*
X44800000Y-39100000D01*
D23*
X44800000Y-38100000D02*
X46300000Y-38100000D01*
X46300000Y-38100000D02*
X47325028Y-39125028D01*
X47325028Y-39125028D02*
X47325027Y-103034203D01*
X47325027Y-103034203D02*
X45784200Y-104575030D01*
X45784200Y-104575030D02*
X38499970Y-104575030D01*
X38499970Y-104575030D02*
X38252500Y-104822500D01*
X38252500Y-104822500D02*
X38252500Y-106400000D01*
D24*
X41910000Y-40640000D02*
X41910000Y-41706800D01*
X41910000Y-41706800D02*
X40640000Y-42976800D01*
X43180000Y-38100000D02*
X43180000Y-39370000D01*
X43180000Y-39370000D02*
X41910000Y-40640000D01*
X44800000Y-38100000D02*
X43180000Y-38100000D01*
D25*
G04 #@! TO.N,/S12*
X44800000Y-56150000D02*
X44800000Y-58150000D01*
D23*
X37152500Y-104447500D02*
X37152500Y-104675000D01*
X37152500Y-104675000D02*
X37152500Y-106400000D01*
X37474980Y-104125020D02*
X37152500Y-104447500D01*
X45597800Y-104125020D02*
X37474980Y-104125020D01*
X46025000Y-57150000D02*
X46875019Y-58000019D01*
X46875019Y-58000019D02*
X46875018Y-102847802D01*
X46875018Y-102847802D02*
X45597800Y-104125020D01*
X44800000Y-57150000D02*
X46025000Y-57150000D01*
D24*
X41910000Y-59690000D02*
X41910000Y-60756800D01*
X41910000Y-60756800D02*
X40640000Y-62026800D01*
X43180000Y-57150000D02*
X43180000Y-58420000D01*
X43180000Y-58420000D02*
X41910000Y-59690000D01*
X44800000Y-57150000D02*
X43180000Y-57150000D01*
D25*
G04 #@! TO.N,/S13*
X44800000Y-75200000D02*
X44800000Y-77200000D01*
D23*
X36052500Y-103947500D02*
X36052500Y-104475000D01*
X36052500Y-104475000D02*
X36052500Y-106400000D01*
X36324990Y-103675010D02*
X36052500Y-103947500D01*
X45411400Y-103675010D02*
X36324990Y-103675010D01*
X46075000Y-76200000D02*
X46425010Y-76550010D01*
X46425010Y-76550010D02*
X46425009Y-102661401D01*
X46425009Y-102661401D02*
X45411400Y-103675010D01*
X44800000Y-76200000D02*
X46075000Y-76200000D01*
D24*
X41910000Y-78740000D02*
X41910000Y-79806800D01*
X41910000Y-79806800D02*
X40640000Y-81076800D01*
X43180000Y-76200000D02*
X43180000Y-77470000D01*
X43180000Y-77470000D02*
X41910000Y-78740000D01*
X44800000Y-76200000D02*
X43180000Y-76200000D01*
D25*
G04 #@! TO.N,/S14*
X44800000Y-94250000D02*
X44800000Y-96250000D01*
D23*
X34950000Y-108230000D02*
X34950000Y-106402500D01*
X34950000Y-106402500D02*
X34952500Y-106400000D01*
X44800000Y-95250000D02*
X45800000Y-95250000D01*
X45800000Y-95250000D02*
X45975000Y-95425000D01*
X45975000Y-95425000D02*
X45975000Y-102475000D01*
X45975000Y-102475000D02*
X45225000Y-103225000D01*
X45225000Y-103225000D02*
X35050000Y-103225000D01*
X35050000Y-103225000D02*
X34952500Y-103322500D01*
X34952500Y-103322500D02*
X34952500Y-106400000D01*
D24*
X41910000Y-97790000D02*
X41910000Y-98856800D01*
X41910000Y-98856800D02*
X40640000Y-100126800D01*
X43180000Y-95250000D02*
X43180000Y-96520000D01*
X43180000Y-96520000D02*
X41910000Y-97790000D01*
X44800000Y-95250000D02*
X43180000Y-95250000D01*
D25*
G04 #@! TO.N,/S21*
X63850000Y-37100000D02*
X63850000Y-39100000D01*
D23*
X44852500Y-106400000D02*
X44852500Y-108247500D01*
X44852500Y-108247500D02*
X44850000Y-108250000D01*
X65184200Y-104525030D02*
X49499990Y-104525030D01*
X49499990Y-104525030D02*
X49325000Y-104700020D01*
X66525028Y-57538620D02*
X66525027Y-103184203D01*
X66525027Y-103184203D02*
X65184200Y-104525030D01*
X65225000Y-38100000D02*
X66525028Y-39400028D01*
X66525028Y-39400028D02*
X66525028Y-57538620D01*
X63850000Y-38100000D02*
X65225000Y-38100000D01*
D24*
X60960000Y-40640000D02*
X60960000Y-41706800D01*
X60960000Y-41706800D02*
X59690000Y-42976800D01*
X62230000Y-38100000D02*
X62230000Y-39370000D01*
X62230000Y-39370000D02*
X60960000Y-40640000D01*
X63850000Y-38100000D02*
X62230000Y-38100000D01*
D25*
G04 #@! TO.N,/S22*
X63850000Y-56150000D02*
X63850000Y-58150000D01*
D23*
X43750000Y-108275000D02*
X43750000Y-106402500D01*
X43750000Y-106402500D02*
X43752500Y-106400000D01*
X64997800Y-104075020D02*
X48935876Y-104075020D01*
X48935876Y-104075020D02*
X48480448Y-104530448D01*
X65500000Y-57150000D02*
X66075019Y-57725019D01*
X66075019Y-57725019D02*
X66075018Y-102997802D01*
X66075018Y-102997802D02*
X64997800Y-104075020D01*
X65275000Y-57150000D02*
X65500000Y-57150000D01*
X63850000Y-57150000D02*
X65275000Y-57150000D01*
D24*
X60960000Y-59690000D02*
X60960000Y-60756800D01*
X60960000Y-60756800D02*
X59690000Y-62026800D01*
X62230000Y-57150000D02*
X62230000Y-58420000D01*
X62230000Y-58420000D02*
X60960000Y-59690000D01*
X63850000Y-57150000D02*
X62230000Y-57150000D01*
D25*
G04 #@! TO.N,/S23*
X63850000Y-75200000D02*
X63850000Y-77200000D01*
D23*
X42425000Y-108175000D02*
X42652500Y-107947500D01*
X42652500Y-107947500D02*
X42652500Y-106400000D01*
X42400000Y-108175000D02*
X42425000Y-108175000D01*
X64811400Y-103625010D02*
X48254514Y-103625010D01*
X48254514Y-103625010D02*
X47914762Y-103964762D01*
X65150000Y-76200000D02*
X65625010Y-76675010D01*
X65625010Y-76675010D02*
X65625009Y-102811401D01*
X65625009Y-102811401D02*
X64811400Y-103625010D01*
X63850000Y-76200000D02*
X65150000Y-76200000D01*
D24*
X60960000Y-78740000D02*
X60960000Y-79806800D01*
X60960000Y-79806800D02*
X59690000Y-81076800D01*
X62230000Y-76200000D02*
X62230000Y-77470000D01*
X62230000Y-77470000D02*
X60960000Y-78740000D01*
X63850000Y-76200000D02*
X62230000Y-76200000D01*
D25*
G04 #@! TO.N,/S24*
X63850000Y-94250000D02*
X63850000Y-96250000D01*
D23*
X41575000Y-108875000D02*
X41552500Y-108852500D01*
X41552500Y-108852500D02*
X41552500Y-106400000D01*
X41275000Y-109175000D02*
X41575000Y-108875000D01*
X65175000Y-95400000D02*
X65025000Y-95250000D01*
X65025000Y-95250000D02*
X63850000Y-95250000D01*
X65175000Y-102625000D02*
X65175000Y-95400000D01*
X41552500Y-106400000D02*
X41552500Y-105150000D01*
X41552500Y-105150000D02*
X41677460Y-105025040D01*
X41677460Y-105025040D02*
X45970601Y-105025039D01*
X45970601Y-105025039D02*
X47820640Y-103175000D01*
X64625000Y-103175000D02*
X65175000Y-102625000D01*
X47820640Y-103175000D02*
X64625000Y-103175000D01*
D24*
X60960000Y-97790000D02*
X60960000Y-98856800D01*
X60960000Y-98856800D02*
X59690000Y-100126800D01*
X62230000Y-95250000D02*
X62230000Y-96520000D01*
X62230000Y-96520000D02*
X60960000Y-97790000D01*
X63850000Y-95250000D02*
X62230000Y-95250000D01*
D25*
G04 #@! TO.N,/S31*
X82900000Y-32337500D02*
X82900000Y-34337500D01*
D23*
X51200012Y-106999988D02*
X51200011Y-108852489D01*
X51200011Y-108852489D02*
X50702500Y-109350000D01*
X50702500Y-109350000D02*
X49452500Y-109350000D01*
X65929800Y-106325070D02*
X51874930Y-106325070D01*
X51874930Y-106325070D02*
X51200012Y-106999988D01*
X68799990Y-100475010D02*
X68799989Y-103454881D01*
X68799989Y-103454881D02*
X65929800Y-106325070D01*
X84359200Y-99800030D02*
X69474970Y-99800030D01*
X69474970Y-99800030D02*
X68799990Y-100475010D01*
X85625000Y-34700000D02*
X85625000Y-98534230D01*
X85625000Y-98534230D02*
X84359200Y-99800030D01*
X84262500Y-33337500D02*
X85625000Y-34700000D01*
X82900000Y-33337500D02*
X84262500Y-33337500D01*
D24*
X82900000Y-33337500D02*
X81280000Y-33337500D01*
X80010000Y-35877500D02*
X80010000Y-36944300D01*
X80010000Y-36944300D02*
X78740000Y-38214300D01*
X81280000Y-33337500D02*
X81280000Y-34607500D01*
X81280000Y-34607500D02*
X80010000Y-35877500D01*
D25*
G04 #@! TO.N,/S32*
X82900000Y-51387500D02*
X82900000Y-53387500D01*
D23*
X49452500Y-108250000D02*
X49452500Y-107572500D01*
X49452500Y-107572500D02*
X50025000Y-107000000D01*
X82900000Y-52387500D02*
X84237500Y-52387500D01*
X85150019Y-53300019D02*
X85150020Y-71888610D01*
X84237500Y-52387500D02*
X85150019Y-53300019D01*
X85150020Y-71888610D02*
X85150018Y-98372802D01*
X68349980Y-99350020D02*
X68349980Y-103268480D01*
X85150018Y-98372802D02*
X84172800Y-99350020D01*
X84172800Y-99350020D02*
X68349980Y-99350020D01*
X65743400Y-105875060D02*
X51674942Y-105875060D01*
X50702500Y-108250000D02*
X49452500Y-108250000D01*
X68349980Y-103268480D02*
X65743400Y-105875060D01*
X51674942Y-105875060D02*
X50750002Y-106800000D01*
X50750002Y-106800000D02*
X50750002Y-108202498D01*
X50750002Y-108202498D02*
X50702500Y-108250000D01*
D24*
X80010000Y-54927500D02*
X80010000Y-55994300D01*
X80010000Y-55994300D02*
X78740000Y-57264300D01*
X81280000Y-52387500D02*
X81280000Y-53657500D01*
X81280000Y-53657500D02*
X80010000Y-54927500D01*
X82900000Y-52387500D02*
X81280000Y-52387500D01*
D25*
G04 #@! TO.N,/S33*
X82900000Y-70437500D02*
X82900000Y-72437500D01*
D23*
X47052500Y-106400000D02*
X47575000Y-106400000D01*
X47575000Y-106400000D02*
X47933078Y-106758078D01*
X48575000Y-106000000D02*
X47452500Y-106000000D01*
X47452500Y-106000000D02*
X47052500Y-106400000D01*
X65557000Y-105425050D02*
X51199950Y-105425050D01*
X51199950Y-105425050D02*
X50625000Y-106000000D01*
X67425046Y-99199954D02*
X67425045Y-103557005D01*
X67425045Y-103557005D02*
X65557000Y-105425050D01*
X83986400Y-98900010D02*
X67724990Y-98900010D01*
X67724990Y-98900010D02*
X67425046Y-99199954D01*
X84700010Y-90413600D02*
X84700009Y-98186401D01*
X84700009Y-98186401D02*
X83986400Y-98900010D01*
X84062500Y-71437500D02*
X84700010Y-72075010D01*
X84700010Y-72075010D02*
X84700010Y-90413600D01*
X82900000Y-71437500D02*
X84062500Y-71437500D01*
D24*
X80010000Y-73977500D02*
X80010000Y-75044300D01*
X80010000Y-75044300D02*
X78740000Y-76314300D01*
X81280000Y-71437500D02*
X81280000Y-72707500D01*
X81280000Y-72707500D02*
X80010000Y-73977500D01*
X82900000Y-71437500D02*
X81280000Y-71437500D01*
D25*
G04 #@! TO.N,/S34*
X82900000Y-89487500D02*
X82900000Y-91487500D01*
D23*
X46535000Y-107632500D02*
X45952500Y-107050000D01*
X46627510Y-107725010D02*
X46535000Y-107632500D01*
X46535000Y-107632500D02*
X46535000Y-117295000D01*
X46535000Y-117295000D02*
X45720000Y-118110000D01*
X50600000Y-104975040D02*
X47850030Y-107725010D01*
X47850030Y-107725010D02*
X46627510Y-107725010D01*
X45952500Y-107050000D02*
X45952500Y-106400000D01*
X65370600Y-104975040D02*
X50600000Y-104975040D01*
X66975037Y-98974963D02*
X66975036Y-103370604D01*
X66975036Y-103370604D02*
X65370600Y-104975040D01*
X83800000Y-98450000D02*
X67500000Y-98450000D01*
X67500000Y-98450000D02*
X66975037Y-98974963D01*
X84250000Y-98000000D02*
X83800000Y-98450000D01*
X84250000Y-90600000D02*
X84250000Y-98000000D01*
X84137500Y-90487500D02*
X84250000Y-90600000D01*
X82900000Y-90487500D02*
X84137500Y-90487500D01*
D24*
X80010000Y-93027500D02*
X80010000Y-94094300D01*
X80010000Y-94094300D02*
X78740000Y-95364300D01*
X81280000Y-90487500D02*
X81280000Y-91757500D01*
X81280000Y-91757500D02*
X80010000Y-93027500D01*
X81280000Y-90487500D02*
X82900000Y-90487500D01*
D25*
G04 #@! TO.N,/S41*
X101950000Y-27575000D02*
X101950000Y-29575000D01*
D23*
X59950510Y-114850000D02*
X51175000Y-114850000D01*
X51175000Y-114850000D02*
X50702500Y-114850000D01*
X101950000Y-28575000D02*
X103400000Y-28575000D01*
X87425036Y-99279834D02*
X85104800Y-101600070D01*
X103400000Y-28575000D02*
X105000028Y-30175028D01*
X70600025Y-104200485D02*
X59950510Y-114850000D01*
X105000028Y-30175028D02*
X105000027Y-93359203D01*
X105000027Y-93359203D02*
X103284200Y-95075030D01*
X103284200Y-95075030D02*
X88174970Y-95075030D01*
X85104800Y-101600070D02*
X71024930Y-101600070D01*
X88174970Y-95075030D02*
X87425037Y-95824963D01*
X87425037Y-95824963D02*
X87425036Y-99279834D01*
X71024930Y-101600070D02*
X70600026Y-102024974D01*
X70600026Y-102024974D02*
X70600025Y-104200485D01*
X50702500Y-114850000D02*
X49452500Y-114850000D01*
D24*
X99060000Y-31115000D02*
X99060000Y-32181800D01*
X99060000Y-32181800D02*
X97790000Y-33451800D01*
X100330000Y-28575000D02*
X100330000Y-29845000D01*
X100330000Y-29845000D02*
X99060000Y-31115000D01*
X101950000Y-28575000D02*
X100330000Y-28575000D01*
D25*
G04 #@! TO.N,/S42*
X101950000Y-46625000D02*
X101950000Y-48625000D01*
D23*
X51975100Y-113750000D02*
X51100000Y-113750000D01*
X51100000Y-113750000D02*
X49452500Y-113750000D01*
X101950000Y-47625000D02*
X103125000Y-47625000D01*
X104550019Y-49050019D02*
X104550018Y-93172802D01*
X103125000Y-47625000D02*
X104550019Y-49050019D01*
X104550018Y-93172802D02*
X103097800Y-94625020D01*
X103097800Y-94625020D02*
X87724980Y-94625020D01*
X87724980Y-94625020D02*
X86975028Y-95374972D01*
X86975028Y-95374972D02*
X86975027Y-99093433D01*
X86975027Y-99093433D02*
X84918400Y-101150060D01*
X66489000Y-107675100D02*
X58050000Y-107675100D01*
X84918400Y-101150060D02*
X70786350Y-101150060D01*
X70786350Y-101150060D02*
X70150017Y-101786393D01*
X70150017Y-101786393D02*
X70150016Y-104014084D01*
X70150016Y-104014084D02*
X66489000Y-107675100D01*
X58050000Y-107675100D02*
X51975100Y-113750000D01*
D24*
X99060000Y-50165000D02*
X99060000Y-51231800D01*
X99060000Y-51231800D02*
X97790000Y-52501800D01*
X100330000Y-47625000D02*
X100330000Y-48895000D01*
X100330000Y-48895000D02*
X99060000Y-50165000D01*
X101950000Y-47625000D02*
X100330000Y-47625000D01*
D25*
G04 #@! TO.N,/S43*
X101950000Y-65675000D02*
X101950000Y-67675000D01*
D23*
X101950000Y-66675000D02*
X103600000Y-66675000D01*
X102911400Y-94175010D02*
X86974990Y-94175010D01*
X103600000Y-66675000D02*
X104100010Y-67175010D01*
X104100010Y-67175010D02*
X104100009Y-92986401D01*
X86525019Y-94624981D02*
X86525018Y-98907032D01*
X104100009Y-92986401D02*
X102911400Y-94175010D01*
X86974990Y-94175010D02*
X86525019Y-94624981D01*
X69700008Y-101599992D02*
X69700007Y-103827683D01*
X69700007Y-103827683D02*
X66302600Y-107225090D01*
X86525018Y-98907032D02*
X84732000Y-100700050D01*
X84732000Y-100700050D02*
X70599950Y-100700050D01*
X70599950Y-100700050D02*
X69700008Y-101599992D01*
X66302600Y-107225090D02*
X56711320Y-107225090D01*
X56711320Y-107225090D02*
X51286410Y-112650000D01*
X51286410Y-112650000D02*
X50702500Y-112650000D01*
X50702500Y-112650000D02*
X49452500Y-112650000D01*
D24*
X99060000Y-69215000D02*
X99060000Y-70281800D01*
X99060000Y-70281800D02*
X97790000Y-71551800D01*
X100330000Y-66675000D02*
X100330000Y-67945000D01*
X100330000Y-67945000D02*
X99060000Y-69215000D01*
X101950000Y-66675000D02*
X100330000Y-66675000D01*
D25*
G04 #@! TO.N,/S44*
X101950000Y-84725000D02*
X101950000Y-86725000D01*
D23*
X51750000Y-111550000D02*
X51275000Y-111550000D01*
X51275000Y-111550000D02*
X49452500Y-111550000D01*
X101950000Y-85725000D02*
X103325000Y-85725000D01*
X69249999Y-101000001D02*
X69249998Y-103641282D01*
X66116200Y-106775080D02*
X56524920Y-106775080D01*
X103325000Y-85725000D02*
X103650000Y-86050000D01*
X103650000Y-86050000D02*
X103650000Y-92800000D01*
X103650000Y-92800000D02*
X102725000Y-93725000D01*
X102725000Y-93725000D02*
X86775000Y-93725000D01*
X86775000Y-93725000D02*
X86075010Y-94424990D01*
X86075010Y-94424990D02*
X86075009Y-98720631D01*
X86075009Y-98720631D02*
X84545600Y-100250040D01*
X84545600Y-100250040D02*
X69999960Y-100250040D01*
X69999960Y-100250040D02*
X69249999Y-101000001D01*
X69249998Y-103641282D02*
X66116200Y-106775080D01*
X56524920Y-106775080D02*
X51750000Y-111550000D01*
D24*
X99060000Y-88265000D02*
X99060000Y-89331800D01*
X99060000Y-89331800D02*
X97790000Y-90601800D01*
X100330000Y-85725000D02*
X100330000Y-86995000D01*
X100330000Y-86995000D02*
X99060000Y-88265000D01*
X101950000Y-85725000D02*
X100330000Y-85725000D01*
D25*
G04 #@! TO.N,/S45*
X101950000Y-103775000D02*
X101950000Y-105775000D01*
D23*
X101355040Y-95525040D02*
X103325000Y-97495000D01*
X103325000Y-97495000D02*
X103325000Y-104775000D01*
X101350000Y-95525040D02*
X88608844Y-95525040D01*
X101350000Y-95525040D02*
X101355040Y-95525040D01*
X51875000Y-109475000D02*
X50900000Y-110450000D01*
X50900000Y-110450000D02*
X49452500Y-110450000D01*
X88608844Y-95525040D02*
X88141942Y-95991942D01*
X101950000Y-104775000D02*
X103325000Y-104775000D01*
D24*
X99060000Y-107315000D02*
X99060000Y-108381800D01*
X99060000Y-108381800D02*
X97790000Y-109651800D01*
X100330000Y-104775000D02*
X100330000Y-106045000D01*
X100330000Y-106045000D02*
X99060000Y-107315000D01*
X101950000Y-104775000D02*
X100330000Y-104775000D01*
D25*
G04 #@! TO.N,/S51*
X121000000Y-32337500D02*
X121000000Y-34337500D01*
D23*
X57459740Y-119250000D02*
X51225000Y-119250000D01*
X51225000Y-119250000D02*
X49452500Y-119250000D01*
X121000000Y-33337500D02*
X122362500Y-33337500D01*
X122362500Y-33337500D02*
X123375019Y-34350019D01*
X102772799Y-113850019D02*
X86977198Y-113850018D01*
X123375019Y-34350019D02*
X123375018Y-98697802D01*
X123375018Y-98697802D02*
X122372810Y-99700010D01*
X122372810Y-99700010D02*
X106274990Y-99700010D01*
X105500010Y-100474990D02*
X105500009Y-111122811D01*
X106274990Y-99700010D02*
X105500010Y-100474990D01*
X105500009Y-111122811D02*
X102772799Y-113850019D01*
X85174980Y-112047800D02*
X85174980Y-103424980D01*
X84700100Y-102950100D02*
X73759640Y-102950100D01*
X86977198Y-113850018D02*
X85174980Y-112047800D01*
X85174980Y-103424980D02*
X84700100Y-102950100D01*
X73759640Y-102950100D02*
X57459740Y-119250000D01*
D24*
X118110000Y-35877500D02*
X118110000Y-36944300D01*
X118110000Y-36944300D02*
X116840000Y-38214300D01*
X119380000Y-33337500D02*
X119380000Y-34607500D01*
X119380000Y-34607500D02*
X118110000Y-35877500D01*
X121000000Y-33337500D02*
X119380000Y-33337500D01*
D25*
G04 #@! TO.N,/S52*
X121000000Y-51387500D02*
X121000000Y-53387500D01*
D23*
X57923330Y-118150000D02*
X51200000Y-118150000D01*
X51200000Y-118150000D02*
X49452500Y-118150000D01*
X121000000Y-52387500D02*
X122362500Y-52387500D01*
X85624990Y-103024990D02*
X85100090Y-102500090D01*
X105050000Y-100150000D02*
X105050000Y-110936410D01*
X122186410Y-99250000D02*
X105950000Y-99250000D01*
X122362500Y-52387500D02*
X122925010Y-52950010D01*
X102586400Y-113400010D02*
X87163599Y-113400009D01*
X85100090Y-102500090D02*
X72174910Y-102500090D01*
X122925010Y-52950010D02*
X122925009Y-98511401D01*
X122925009Y-98511401D02*
X122186410Y-99250000D01*
X87163599Y-113400009D02*
X85624990Y-111861400D01*
X105950000Y-99250000D02*
X105050000Y-100150000D01*
X105050000Y-110936410D02*
X102586400Y-113400010D01*
X85624990Y-111861400D02*
X85624990Y-103024990D01*
X72174910Y-102500090D02*
X71500044Y-103174956D01*
X71500044Y-103174956D02*
X71500043Y-104573287D01*
X71500043Y-104573287D02*
X57923330Y-118150000D01*
D24*
X118110000Y-54927500D02*
X118110000Y-55994300D01*
X118110000Y-55994300D02*
X116840000Y-57264300D01*
X119380000Y-52387500D02*
X119380000Y-53657500D01*
X119380000Y-53657500D02*
X118110000Y-54927500D01*
X121000000Y-52387500D02*
X119380000Y-52387500D01*
D25*
G04 #@! TO.N,/S53*
X121000000Y-70437500D02*
X121000000Y-72437500D01*
D23*
X58386920Y-117050000D02*
X51250000Y-117050000D01*
X51250000Y-117050000D02*
X50702500Y-117050000D01*
X121000000Y-71437500D02*
X122387500Y-71437500D01*
X122387500Y-71437500D02*
X122475000Y-71525000D01*
X86075000Y-102833880D02*
X85291200Y-102050080D01*
X122475000Y-71525000D02*
X122475000Y-98325000D01*
X122475000Y-98325000D02*
X122050000Y-98750000D01*
X122050000Y-98750000D02*
X110411410Y-98750000D01*
X71050035Y-102974965D02*
X71050034Y-104386886D01*
X105225000Y-98775000D02*
X104575010Y-99424990D01*
X110411410Y-98750000D02*
X110386410Y-98775000D01*
X110386410Y-98775000D02*
X105225000Y-98775000D01*
X104575010Y-99424990D02*
X104575010Y-110774990D01*
X104575010Y-110774990D02*
X102400000Y-112950000D01*
X102400000Y-112950000D02*
X87350000Y-112950000D01*
X87350000Y-112950000D02*
X86075000Y-111675000D01*
X85291200Y-102050080D02*
X71974920Y-102050080D01*
X86075000Y-111675000D02*
X86075000Y-102833880D01*
X71974920Y-102050080D02*
X71050035Y-102974965D01*
X71050034Y-104386886D02*
X58386920Y-117050000D01*
X50702500Y-117050000D02*
X49452500Y-117050000D01*
D24*
X118110000Y-73977500D02*
X118110000Y-75044300D01*
X118110000Y-75044300D02*
X116840000Y-76314300D01*
X119380000Y-71437500D02*
X119380000Y-72707500D01*
X119380000Y-72707500D02*
X118110000Y-73977500D01*
X121000000Y-71437500D02*
X119380000Y-71437500D01*
D25*
G04 #@! TO.N,/S54*
X121000000Y-89487500D02*
X121000000Y-91487500D01*
D23*
X49452500Y-115950000D02*
X51250000Y-115950000D01*
D24*
X118110000Y-93027500D02*
X118110000Y-94094300D01*
X118110000Y-94094300D02*
X116840000Y-95364300D01*
X119380000Y-90487500D02*
X119380000Y-91757500D01*
X119380000Y-91757500D02*
X118110000Y-93027500D01*
X119380000Y-90487500D02*
X121000000Y-90487500D01*
D25*
G04 #@! TO.N,/S55*
X121000000Y-108537500D02*
X121000000Y-110537500D01*
D23*
X56996150Y-120350000D02*
X51250000Y-120350000D01*
X73846150Y-103500000D02*
X56996150Y-120350000D01*
X51250000Y-120350000D02*
X49452500Y-120350000D01*
X121000000Y-109537500D02*
X122087500Y-109537500D01*
X122400000Y-109225000D02*
X122400000Y-100825000D01*
X122087500Y-109537500D02*
X122400000Y-109225000D01*
X122400000Y-100825000D02*
X121725020Y-100150020D01*
X121725020Y-100150020D02*
X106499980Y-100150020D01*
X84724970Y-112234200D02*
X84724970Y-103624970D01*
X106499980Y-100150020D02*
X105950019Y-100699981D01*
X105950019Y-100699981D02*
X105950019Y-111324981D01*
X105950019Y-111324981D02*
X102974972Y-114300028D01*
X84724970Y-103624970D02*
X84600000Y-103500000D01*
X102974972Y-114300028D02*
X86790797Y-114300027D01*
X86790797Y-114300027D02*
X84724970Y-112234200D01*
X84600000Y-103500000D02*
X73846150Y-103500000D01*
D24*
X118110000Y-112077500D02*
X118110000Y-113144300D01*
X118110000Y-113144300D02*
X116840000Y-114414300D01*
X119380000Y-109537500D02*
X119380000Y-110807500D01*
X119380000Y-110807500D02*
X118110000Y-112077500D01*
X121000000Y-109537500D02*
X119380000Y-109537500D01*
D25*
G04 #@! TO.N,/S61*
X140050000Y-39005000D02*
X140050000Y-41005000D01*
D23*
X44852500Y-122200000D02*
X44852500Y-122850000D01*
X44852500Y-122850000D02*
X46077500Y-124075000D01*
D24*
X140050000Y-40005000D02*
X138430000Y-40005000D01*
X138430000Y-40005000D02*
X138430000Y-41275000D01*
X138430000Y-41275000D02*
X137160000Y-42545000D01*
X137160000Y-42545000D02*
X137160000Y-43611800D01*
X137160000Y-43611800D02*
X135890000Y-44881800D01*
D25*
G04 #@! TO.N,/S62*
X140050000Y-58055000D02*
X140050000Y-60055000D01*
D23*
X43752500Y-122200000D02*
X43752500Y-122850000D01*
X43752500Y-122850000D02*
X45002500Y-124100000D01*
D24*
X137160000Y-61595000D02*
X137160000Y-62661800D01*
X137160000Y-62661800D02*
X135890000Y-63931800D01*
X138430000Y-59055000D02*
X138430000Y-60325000D01*
X138430000Y-60325000D02*
X137160000Y-61595000D01*
X140050000Y-59055000D02*
X138430000Y-59055000D01*
D25*
G04 #@! TO.N,/S63*
X140050000Y-77105000D02*
X140050000Y-79105000D01*
D23*
X41077500Y-120475000D02*
X40452500Y-121100000D01*
X40452500Y-121100000D02*
X40452500Y-122200000D01*
D24*
X140050000Y-78105000D02*
X138430000Y-78105000D01*
X137160000Y-80645000D02*
X137160000Y-81711800D01*
X137160000Y-81711800D02*
X135890000Y-82981800D01*
X138430000Y-78105000D02*
X138430000Y-79375000D01*
X138430000Y-79375000D02*
X137160000Y-80645000D01*
D25*
G04 #@! TO.N,/S64*
X140050000Y-96155000D02*
X140050000Y-98155000D01*
D23*
X39925000Y-123850000D02*
X39352500Y-123277500D01*
X39352500Y-123277500D02*
X39352500Y-122200000D01*
D24*
X137160000Y-99695000D02*
X137160000Y-100761800D01*
X137160000Y-100761800D02*
X135890000Y-102031800D01*
X138430000Y-97155000D02*
X138430000Y-98425000D01*
X138430000Y-98425000D02*
X137160000Y-99695000D01*
X138430000Y-97155000D02*
X140050000Y-97155000D01*
D23*
G04 #@! TO.N,/S65*
X140050000Y-116205000D02*
X140050000Y-117205000D01*
X140050000Y-115205000D02*
X140050000Y-116205000D01*
D24*
X137160000Y-118745000D02*
X137160000Y-119811800D01*
X137160000Y-119811800D02*
X135890000Y-121081800D01*
X137425001Y-117204999D02*
X137160000Y-117470000D01*
X137160000Y-117470000D02*
X137160000Y-118745000D01*
X138430000Y-116205000D02*
X137430001Y-117204999D01*
X137430001Y-117204999D02*
X137425001Y-117204999D01*
X140050000Y-116205000D02*
X138430000Y-116205000D01*
D23*
X38252500Y-123450000D02*
X38750000Y-123947500D01*
X38252500Y-122200000D02*
X38252500Y-123450000D01*
D25*
G04 #@! TO.N,/S71*
X159100000Y-118170000D02*
X159100000Y-120170000D01*
D23*
X37152500Y-122200000D02*
X37152500Y-123450000D01*
X37152500Y-123450000D02*
X37602500Y-123900000D01*
D24*
X156210000Y-121710000D02*
X156210000Y-122776800D01*
X156210000Y-122776800D02*
X154940000Y-124046800D01*
X157480000Y-119170000D02*
X157480000Y-120440000D01*
X157480000Y-120440000D02*
X156210000Y-121710000D01*
X157480000Y-119170000D02*
X159100000Y-119170000D01*
D23*
G04 #@! TO.N,/SWDIO*
X39052500Y-113347500D02*
X40452500Y-111947500D01*
X40452500Y-111947500D02*
X40452500Y-106400000D01*
G04 #@! TO.N,/SWCLK*
X39052500Y-110807500D02*
X39052500Y-106700000D01*
X39052500Y-106700000D02*
X39352500Y-106400000D01*
G04 #@! TO.N,Net-(D2-PadNC)*
X42652500Y-122200000D02*
X41552500Y-122200000D01*
G04 #@! TD*
M02*
