M48
;DRILL file {KiCad (5.0.0)} date 11/05/18 15:10:04
;FORMAT={-:-/ absolute / inch / decimal}
FMAT,2
INCH,TZ
T1C0.0250
T2C0.0354
%
G90
G05
M72
T1
X2.5011Y3.21
X2.535Y2.97
X2.565Y3.3797
X2.6069Y2.8772
X2.6222Y3.0503
X2.6589Y3.32
X2.685Y3.08
X2.685Y2.98
X2.7431Y2.8772
X2.835Y3.3
X2.9147Y3.3
X2.943Y2.8772
X2.945Y2.98
X2.975Y2.95
X3.005Y3.0631
X3.005Y2.92
X3.0553Y3.25
X3.1189Y3.1614
X3.137Y3.0631
X3.2031Y2.8764
X3.2118Y3.176
X3.3587Y3.2197
X3.3661Y3.3913
X3.6346Y2.9598
T2
X2.625Y2.8
X2.725Y2.8
X2.825Y2.8
X2.925Y2.8
X3.025Y2.8
X3.125Y2.8
X3.7266Y3.25
X3.7266Y3.15
X3.7266Y3.05
X3.7266Y2.95
X2.625Y3.4
X2.725Y3.4
X2.825Y3.4
X2.925Y3.4
X3.025Y3.4
X3.125Y3.4
T0
M30
