G04 #@! TF.GenerationSoftware,KiCad,Pcbnew,(5.0.0)*
G04 #@! TF.CreationDate,2018-11-06T09:34:30+07:00*
G04 #@! TF.ProjectId,receiver,72656365697665722E6B696361645F70,rev?*
G04 #@! TF.SameCoordinates,Original*
G04 #@! TF.FileFunction,Other,User*
%FSLAX46Y46*%
G04 Gerber Fmt 4.6, Leading zero omitted, Abs format (unit mm)*
G04 Created by KiCad (PCBNEW (5.0.0)) date 11/06/18 09:34:30*
%MOMM*%
%LPD*%
G01*
G04 APERTURE LIST*
%ADD10C,0.200000*%
%ADD11C,0.100000*%
%ADD12C,0.050000*%
G04 APERTURE END LIST*
D10*
X73981000Y77530000D02*
X79181000Y77530000D01*
X79181000Y77530000D02*
X79181000Y72330000D01*
X79181000Y72330000D02*
X73981000Y72330000D01*
X73981000Y72330000D02*
X73981000Y77530000D01*
X75489730Y73832230D02*
X77681040Y73832230D01*
X77681040Y73832230D02*
X77681040Y76027930D01*
X77681040Y76027930D02*
X75489730Y76027930D01*
X75489730Y76027930D02*
X75489730Y73832230D01*
X65345000Y77530000D02*
X70545000Y77530000D01*
X70545000Y77530000D02*
X70545000Y72330000D01*
X70545000Y72330000D02*
X65345000Y72330000D01*
X65345000Y72330000D02*
X65345000Y77530000D01*
X66853730Y73832230D02*
X69045040Y73832230D01*
X69045040Y73832230D02*
X69045040Y76027930D01*
X69045040Y76027930D02*
X66853730Y76027930D01*
X66853730Y76027930D02*
X66853730Y73832230D01*
X70467030Y80541880D02*
X70467030Y82534000D01*
X70467030Y82534000D02*
X68470970Y82534000D01*
X68470970Y82534000D02*
X68470970Y80541880D01*
X68470970Y80541880D02*
X70467030Y80541880D01*
X67005000Y78702000D02*
X63805000Y78702000D01*
X63805000Y78702000D02*
X63805000Y80302000D01*
X63805000Y80302000D02*
X67005000Y80302000D01*
X67005000Y80302000D02*
X67005000Y78702000D01*
X67005000Y82766000D02*
X63805000Y82766000D01*
X63805000Y82766000D02*
X63805000Y84366000D01*
X63805000Y84366000D02*
X67005000Y84366000D01*
X67005000Y84366000D02*
X67005000Y82766000D01*
X67969000Y79834000D02*
X70969000Y79834000D01*
X70969000Y79834000D02*
X70969000Y83234000D01*
X70969000Y83234000D02*
X67969000Y83234000D01*
X67969000Y83234000D02*
X67969000Y79834000D01*
X78177000Y78184000D02*
X78177000Y84884000D01*
X78177000Y84884000D02*
X74477000Y84884000D01*
X74477000Y84884000D02*
X74477000Y78184000D01*
X74477000Y78184000D02*
X78177000Y78184000D01*
D11*
X68969000Y81534000D02*
X69969000Y81534000D01*
X69469000Y81034000D02*
X69469000Y82034000D01*
D12*
X71469000Y78584000D02*
X71469000Y84484000D01*
X67469000Y78584000D02*
X67469000Y84484000D01*
X67469000Y84484000D02*
X71469000Y84484000D01*
X67469000Y78584000D02*
X71469000Y78584000D01*
X80677000Y77934000D02*
X80677000Y85134000D01*
X71977000Y77934000D02*
X71977000Y85134000D01*
X71977000Y77934000D02*
X80677000Y77934000D01*
X71977000Y85134000D02*
X80677000Y85134000D01*
D11*
X75827000Y81534000D02*
X76827000Y81534000D01*
X76327000Y81034000D02*
X76327000Y82034000D01*
M02*
