G04 #@! TF.GenerationSoftware,KiCad,Pcbnew,(5.0.1)-3*
G04 #@! TF.CreationDate,2018-11-04T22:42:31+07:00*
G04 #@! TF.ProjectId,receiver,72656365697665722E6B696361645F70,rev?*
G04 #@! TF.SameCoordinates,Original*
G04 #@! TF.FileFunction,Copper,L1,Top,Signal*
G04 #@! TF.FilePolarity,Positive*
%FSLAX46Y46*%
G04 Gerber Fmt 4.6, Leading zero omitted, Abs format (unit mm)*
G04 Created by KiCad (PCBNEW (5.0.1)-3) date 04-Nov-18 22:42:31*
%MOMM*%
%LPD*%
G01*
G04 APERTURE LIST*
G04 #@! TA.AperFunction,SMDPad,CuDef*
%ADD10O,0.700000X2.500000*%
G04 #@! TD*
G04 #@! TA.AperFunction,SMDPad,CuDef*
%ADD11O,2.500000X0.700000*%
G04 #@! TD*
G04 #@! TA.AperFunction,ComponentPad*
%ADD12C,1.500000*%
G04 #@! TD*
G04 #@! TA.AperFunction,ComponentPad*
%ADD13R,1.500000X1.500000*%
G04 #@! TD*
G04 #@! TA.AperFunction,SMDPad,CuDef*
%ADD14O,0.950000X1.600000*%
G04 #@! TD*
G04 #@! TA.AperFunction,SMDPad,CuDef*
%ADD15R,0.340000X1.000000*%
G04 #@! TD*
G04 #@! TA.AperFunction,SMDPad,CuDef*
%ADD16O,1.800000X1.100000*%
G04 #@! TD*
G04 #@! TA.AperFunction,SMDPad,CuDef*
%ADD17O,2.400000X1.000000*%
G04 #@! TD*
G04 #@! TA.AperFunction,SMDPad,CuDef*
%ADD18O,2.400000X3.300000*%
G04 #@! TD*
G04 #@! TA.AperFunction,ViaPad*
%ADD19C,0.889000*%
G04 #@! TD*
G04 #@! TA.AperFunction,Conductor*
%ADD20C,0.508000*%
G04 #@! TD*
G04 #@! TA.AperFunction,Conductor*
%ADD21C,0.254000*%
G04 #@! TD*
G04 APERTURE END LIST*
D10*
G04 #@! TO.P,U1,20*
G04 #@! TO.N,N/C*
X92454990Y71325000D03*
D11*
G04 #@! TO.P,U1,36*
X99255000Y86475000D03*
D10*
G04 #@! TO.P,U1,22*
X94655000Y71325000D03*
D11*
G04 #@! TO.P,U1,29*
X99255000Y78775000D03*
D10*
G04 #@! TO.P,U1,21*
X93555000Y71325000D03*
D11*
G04 #@! TO.P,U1,34*
X99255000Y84275000D03*
G04 #@! TO.P,U1,33*
X99255000Y83175000D03*
G04 #@! TO.P,U1,32*
G04 #@! TO.N,SWCLK*
X99255000Y82075000D03*
G04 #@! TO.P,U1,31*
G04 #@! TO.N,SWDIO*
X99255000Y80975000D03*
G04 #@! TO.P,U1,30*
G04 #@! TO.N,N/C*
X99255000Y79875000D03*
G04 #@! TO.P,U1,28*
X99255000Y77675000D03*
G04 #@! TO.P,U1,27*
X99255000Y76575000D03*
G04 #@! TO.P,U1,26*
X99255000Y75475000D03*
G04 #@! TO.P,U1,25*
X99255000Y74375000D03*
D10*
G04 #@! TO.P,U1,24*
X96855000Y71325000D03*
G04 #@! TO.P,U1,23*
X95755000Y71325000D03*
D11*
G04 #@! TO.P,U1,35*
X99255000Y85375000D03*
D10*
G04 #@! TO.P,U1,17*
X89155000Y71325000D03*
D11*
G04 #@! TO.P,U1,3*
X82355000Y84275000D03*
G04 #@! TO.P,U1,10*
G04 #@! TO.N,P-D3*
X82355000Y76575000D03*
G04 #@! TO.P,U1,2*
G04 #@! TO.N,N/C*
X82355000Y85375000D03*
D10*
G04 #@! TO.P,U1,15*
X86955000Y71325000D03*
G04 #@! TO.P,U1,14*
X85854990Y71325000D03*
G04 #@! TO.P,U1,13*
X84754990Y71325000D03*
D11*
G04 #@! TO.P,U1,11*
G04 #@! TO.N,GND*
X82355000Y75475000D03*
G04 #@! TO.P,U1,9*
G04 #@! TO.N,N/C*
X82355000Y77675000D03*
G04 #@! TO.P,U1,8*
X82355000Y78775000D03*
G04 #@! TO.P,U1,7*
X82355000Y79875000D03*
G04 #@! TO.P,U1,6*
G04 #@! TO.N,TXO_DIV*
X82355000Y80975000D03*
G04 #@! TO.P,U1,5*
G04 #@! TO.N,RXI*
X82355000Y82075000D03*
G04 #@! TO.P,U1,4*
G04 #@! TO.N,N/C*
X82355000Y83175000D03*
D10*
G04 #@! TO.P,U1,16*
X88055000Y71325000D03*
G04 #@! TO.P,U1,19*
X91355000Y71325000D03*
G04 #@! TO.P,U1,18*
X90254990Y71325000D03*
D11*
G04 #@! TO.P,U1,12*
G04 #@! TO.N,VCC*
X82355000Y74375000D03*
G04 #@! TO.P,U1,1*
G04 #@! TO.N,GND*
X82355000Y86475000D03*
G04 #@! TD*
D12*
G04 #@! TO.P,P1,6*
G04 #@! TO.N,P-D3*
X79375000Y71120000D03*
G04 #@! TO.P,P1,5*
G04 #@! TO.N,G-D2*
X76835000Y71120000D03*
G04 #@! TO.P,P1,4*
G04 #@! TO.N,GND*
X74295000Y71120000D03*
G04 #@! TO.P,P1,3*
X71755000Y71120000D03*
G04 #@! TO.P,P1,2*
G04 #@! TO.N,RXI*
X69215000Y71120000D03*
D13*
G04 #@! TO.P,P1,1*
G04 #@! TO.N,TXO*
X66675000Y71120000D03*
G04 #@! TD*
G04 #@! TO.P,P3,1*
G04 #@! TO.N,VCC*
X96655000Y74930000D03*
D12*
G04 #@! TO.P,P3,2*
G04 #@! TO.N,GND*
X96655000Y77470000D03*
G04 #@! TO.P,P3,3*
G04 #@! TO.N,SWDIO*
X96655000Y80010000D03*
G04 #@! TO.P,P3,4*
G04 #@! TO.N,SWCLK*
X96655000Y82550000D03*
G04 #@! TD*
D14*
G04 #@! TO.P,D1,3*
G04 #@! TO.N,B*
X70219000Y83209000D03*
G04 #@! TO.P,D1,4*
G04 #@! TO.N,G*
X68719000Y83209000D03*
G04 #@! TO.P,D1,2*
G04 #@! TO.N,VIN*
X70219000Y79859000D03*
G04 #@! TO.P,D1,1*
G04 #@! TO.N,R*
X68719000Y79859000D03*
G04 #@! TD*
D15*
G04 #@! TO.P,R1,4*
G04 #@! TO.N,N/C*
X65805000Y78502000D03*
G04 #@! TO.P,R1,6*
G04 #@! TO.N,TXO*
X65005000Y78502000D03*
G04 #@! TO.P,R1,8*
X64205000Y78502000D03*
G04 #@! TO.P,R1,2*
G04 #@! TO.N,GND*
X66605000Y78502000D03*
G04 #@! TO.P,R1,7*
G04 #@! TO.N,TXO_DIV*
X64205000Y80502000D03*
G04 #@! TO.P,R1,5*
X65005000Y80502000D03*
G04 #@! TO.P,R1,3*
X65805000Y80502000D03*
G04 #@! TO.P,R1,1*
X66605000Y80502000D03*
G04 #@! TD*
G04 #@! TO.P,R2,4*
G04 #@! TO.N,R*
X65805000Y82566000D03*
G04 #@! TO.P,R2,6*
G04 #@! TO.N,G*
X65005000Y82566000D03*
G04 #@! TO.P,R2,8*
G04 #@! TO.N,G-D2*
X64205000Y82566000D03*
G04 #@! TO.P,R2,2*
G04 #@! TO.N,B*
X66605000Y82566000D03*
G04 #@! TO.P,R2,7*
G04 #@! TO.N,NetR2_5*
X64205000Y84566000D03*
G04 #@! TO.P,R2,5*
X65005000Y84566000D03*
G04 #@! TO.P,R2,3*
G04 #@! TO.N,R-A2*
X65805000Y84566000D03*
G04 #@! TO.P,R2,1*
G04 #@! TO.N,B-A3*
X66605000Y84566000D03*
G04 #@! TD*
D16*
G04 #@! TO.P,B1,2*
G04 #@! TO.N,GND*
X73481000Y73080000D03*
X79681000Y73080000D03*
G04 #@! TO.P,B1,1*
G04 #@! TO.N,P-D3*
X79681000Y76780000D03*
X73481000Y76780000D03*
G04 #@! TD*
G04 #@! TO.P,B2,2*
G04 #@! TO.N,GND*
X64845000Y73080000D03*
X71045000Y73080000D03*
G04 #@! TO.P,B2,1*
G04 #@! TO.N,RST*
X71045000Y76780000D03*
X64845000Y76780000D03*
G04 #@! TD*
D17*
G04 #@! TO.P,U2,1*
G04 #@! TO.N,GND*
X79227000Y79234000D03*
G04 #@! TO.P,U2,2*
G04 #@! TO.N,VCC*
X79227000Y81534000D03*
G04 #@! TO.P,U2,3*
G04 #@! TO.N,VIN*
X79227000Y83834000D03*
D18*
G04 #@! TO.P,U2,4*
G04 #@! TO.N,VCC*
X73427000Y81534000D03*
G04 #@! TD*
D12*
G04 #@! TO.P,P2,6*
G04 #@! TO.N,R-A2*
X79375000Y86360000D03*
G04 #@! TO.P,P2,5*
G04 #@! TO.N,B-A3*
X76835000Y86360000D03*
G04 #@! TO.P,P2,4*
G04 #@! TO.N,5V0*
X74295000Y86360000D03*
G04 #@! TO.P,P2,3*
G04 #@! TO.N,RST*
X71755000Y86360000D03*
G04 #@! TO.P,P2,2*
G04 #@! TO.N,GND*
X69215000Y86360000D03*
D13*
G04 #@! TO.P,P2,1*
G04 #@! TO.N,VIN*
X66675000Y86360000D03*
G04 #@! TD*
D19*
G04 #@! TO.N,GND*
X77605000Y82550000D03*
X74033000Y83820000D03*
G04 #@! TO.N,R-A2*
X65151000Y85845180D03*
G04 #@! TO.N,B-A3*
X67537000Y84328000D03*
G04 #@! TO.N,P-D3*
X76327000Y77804000D03*
X79681000Y77804000D03*
G04 #@! TO.N,G-D2*
X75565000Y74930000D03*
X63527000Y81534000D03*
X64389000Y75438000D03*
G04 #@! TO.N,TXO_DIV*
X81407000Y73152000D03*
X74803000Y75692000D03*
X68199000Y75692000D03*
X68199000Y78232000D03*
G04 #@! TO.N,GND*
X80735000Y75475000D03*
X66605000Y77478000D03*
X80137000Y80264000D03*
X80835000Y86475000D03*
X84375000Y86475000D03*
X83997800Y75476100D03*
X78311000Y73080000D03*
X74751000Y73080000D03*
X69675000Y73080000D03*
X66215000Y73080000D03*
G04 #@! TO.N,VCC*
X86725000Y74930000D03*
X83997800Y74375000D03*
G04 #@! TO.N,RST*
X72009000Y83820000D03*
G04 #@! TO.N,RXI*
X81407000Y72136000D03*
X76327000Y74168000D03*
G04 #@! TD*
D20*
G04 #@! TO.N,GND*
X74033000Y83820000D02*
X76335000Y83820000D01*
X76335000Y83820000D02*
X77605000Y82550000D01*
D21*
G04 #@! TO.N,R-A2*
X65805000Y85191180D02*
X65805000Y84566000D01*
X65151000Y85845180D02*
X65805000Y85191180D01*
G04 #@! TO.N,B-A3*
X67199000Y84566000D02*
X67437000Y84328000D01*
X66605000Y84566000D02*
X67199000Y84566000D01*
G04 #@! TO.N,P-D3*
X76327000Y76780000D02*
X76509000Y76780000D01*
X73481000Y76780000D02*
X76327000Y76780000D01*
X76327000Y76780000D02*
X76327000Y77804000D01*
X77597000Y72898000D02*
X77597000Y75692000D01*
X76509000Y76780000D02*
X77597000Y75692000D01*
X79681000Y76780000D02*
X79886000Y76575000D01*
X79886000Y76575000D02*
X82105000Y76575000D01*
X77597000Y72898000D02*
X79375000Y71120000D01*
X79681000Y76780000D02*
X79681000Y77804000D01*
G04 #@! TO.N,G-D2*
X64897000Y74930000D02*
X75565000Y74930000D01*
X64389000Y75438000D02*
X64897000Y74930000D01*
X63627000Y81534000D02*
X64135000Y81534000D01*
X64135000Y81534000D02*
X64205000Y81604000D01*
X64205000Y81604000D02*
X64205000Y82566000D01*
G04 #@! TO.N,TXO*
X64205000Y78502000D02*
X65005000Y78502000D01*
X63897000Y78502000D02*
X64205000Y78502000D01*
X63564000Y78169000D02*
X63897000Y78502000D01*
X63564000Y72453000D02*
X63564000Y78169000D01*
X63564000Y72453000D02*
X64897000Y71120000D01*
X64897000Y71120000D02*
X66675000Y71120000D01*
G04 #@! TO.N,TXO_DIV*
X68199000Y75692000D02*
X74803000Y75692000D01*
X66605000Y79826000D02*
X68199000Y78232000D01*
X66605000Y79826000D02*
X66605000Y80502000D01*
X65805000Y80502000D02*
X66605000Y80502000D01*
X65005000Y80502000D02*
X65805000Y80502000D01*
X64205000Y80502000D02*
X65005000Y80502000D01*
X83490000Y80975000D02*
X82105000Y80975000D01*
X84678801Y79786199D02*
X83490000Y80975000D01*
X84678801Y74048119D02*
X84678801Y79786199D01*
X83782682Y73152000D02*
X84678801Y74048119D01*
X81407000Y73152000D02*
X83782682Y73152000D01*
G04 #@! TO.N,NetR2_5*
X64205000Y84566000D02*
X65005000Y84566000D01*
G04 #@! TO.N,G*
X68362000Y83566000D02*
X68719000Y83209000D01*
X65151000Y83566000D02*
X68362000Y83566000D01*
X65005000Y83420000D02*
X65151000Y83566000D01*
X65005000Y82566000D02*
X65005000Y83420000D01*
G04 #@! TO.N,B*
X70219000Y82792000D02*
X70219000Y83209000D01*
X69215000Y81788000D02*
X70219000Y82792000D01*
X68199000Y81788000D02*
X69215000Y81788000D01*
X67421000Y82566000D02*
X68199000Y81788000D01*
X66605000Y82566000D02*
X67421000Y82566000D01*
G04 #@! TO.N,R*
X68719000Y79859000D02*
X68719000Y80252000D01*
X67437000Y81534000D02*
X68719000Y80252000D01*
X65913000Y81534000D02*
X67437000Y81534000D01*
X65805000Y81642000D02*
X65913000Y81534000D01*
X65805000Y81642000D02*
X65805000Y82566000D01*
D20*
G04 #@! TO.N,GND*
X83007200Y86475000D02*
X84277200Y86475000D01*
X80835000Y86475000D02*
X82105000Y86475000D01*
X80835000Y75475000D02*
X82105000Y75475000D01*
D21*
X66605000Y77478000D02*
X66605000Y78502000D01*
X78411000Y73080000D02*
X79681000Y73080000D01*
X73481000Y73080000D02*
X74751000Y73080000D01*
X69775000Y73080000D02*
X71045000Y73080000D01*
X64845000Y73080000D02*
X66115000Y73080000D01*
D20*
X82677000Y75488800D02*
X83947000Y75488800D01*
X80137000Y79234000D02*
X80137000Y80264000D01*
D21*
G04 #@! TO.N,SWCLK*
X97130000Y82075000D02*
X96655000Y82550000D01*
X99255000Y82075000D02*
X97130000Y82075000D01*
G04 #@! TO.N,SWDIO*
X97620000Y80975000D02*
X96655000Y80010000D01*
X99255000Y80975000D02*
X97620000Y80975000D01*
D20*
G04 #@! TO.N,VCC*
X77343000Y77110670D02*
X77343000Y81534000D01*
X77343000Y77110670D02*
X80078670Y74375000D01*
X80078670Y74375000D02*
X82105000Y74375000D01*
X73427000Y81534000D02*
X79227000Y81534000D01*
X82600800Y74383900D02*
X83870800Y74383900D01*
D21*
X95651000Y74930000D02*
X86725000Y74930000D01*
X96655000Y74930000D02*
X95651000Y74930000D01*
G04 #@! TO.N,RST*
X71755000Y83566000D02*
X72009000Y83820000D01*
X71755000Y76962000D02*
X71755000Y83566000D01*
X71573000Y76780000D02*
X71755000Y76962000D01*
X71045000Y76780000D02*
X71573000Y76780000D01*
X64901000Y76724000D02*
X70989000Y76724000D01*
X70989000Y76724000D02*
X71045000Y76780000D01*
X64845000Y76780000D02*
X64901000Y76724000D01*
G04 #@! TO.N,RXI*
X69723000Y74168000D02*
X76327000Y74168000D01*
X68961000Y73406000D02*
X69723000Y74168000D01*
X68961000Y71374000D02*
X68961000Y73406000D01*
X68961000Y71374000D02*
X69215000Y71120000D01*
X84168000Y82075000D02*
X82105000Y82075000D01*
X85191600Y81051400D02*
X84168000Y82075000D01*
X85191600Y73695414D02*
X85191600Y81051400D01*
X83632186Y72136000D02*
X85191600Y73695414D01*
X81407000Y72136000D02*
X83632186Y72136000D01*
G04 #@! TO.N,VIN*
X71247000Y82550000D02*
X71247000Y84836000D01*
X70219000Y81522000D02*
X71247000Y82550000D01*
D20*
X68199000Y84836000D02*
X71247000Y84836000D01*
X77837000Y83834000D02*
X79227000Y83834000D01*
X76835000Y84836000D02*
X77837000Y83834000D01*
X71247000Y84836000D02*
X76835000Y84836000D01*
D21*
X70219000Y79859000D02*
X70219000Y81522000D01*
D20*
X66675000Y86360000D02*
X68199000Y84836000D01*
G04 #@! TD*
M02*
