M48
;DRILL file {KiCad (5.0.1)-3} date 04-Nov-18 22:43:50
;FORMAT={-:-/ absolute / inch / decimal}
FMAT,2
INCH,TZ
T1C0.0250
T2C0.0354
%
G90
G05
M72
T1
X2.5011Y3.21
X2.535Y2.97
X2.565Y3.3797
X2.6069Y2.8772
X2.6222Y3.0503
X2.6589Y3.32
X2.685Y3.08
X2.685Y2.98
X2.7431Y2.8772
X2.835Y3.3
X2.9147Y3.3
X2.943Y2.8772
X2.945Y2.98
X2.975Y2.95
X3.005Y3.0631
X3.005Y2.92
X3.0553Y3.25
X3.0831Y2.8772
X3.137Y3.0631
X3.155Y3.16
X3.1785Y2.9715
X3.1825Y3.4045
X3.205Y2.88
X3.205Y2.84
X3.307Y2.9715
X3.307Y2.9281
X3.3219Y3.4045
X3.4144Y2.95
T2
X3.8053Y3.25
X3.8053Y3.15
X3.8053Y3.05
X3.8053Y2.95
X2.625Y2.8
X2.725Y2.8
X2.825Y2.8
X2.925Y2.8
X3.025Y2.8
X3.125Y2.8
X2.625Y3.4
X2.725Y3.4
X2.825Y3.4
X2.925Y3.4
X3.025Y3.4
X3.125Y3.4
T0
M30
