G04 #@! TF.GenerationSoftware,KiCad,Pcbnew,(5.0.0)*
G04 #@! TF.CreationDate,2018-11-06T09:34:30+07:00*
G04 #@! TF.ProjectId,receiver,72656365697665722E6B696361645F70,rev?*
G04 #@! TF.SameCoordinates,Original*
G04 #@! TF.FileFunction,Soldermask,Bot*
G04 #@! TF.FilePolarity,Negative*
%FSLAX46Y46*%
G04 Gerber Fmt 4.6, Leading zero omitted, Abs format (unit mm)*
G04 Created by KiCad (PCBNEW (5.0.0)) date 11/06/18 09:34:30*
%MOMM*%
%LPD*%
G01*
G04 APERTURE LIST*
%ADD10C,0.100000*%
G04 APERTURE END LIST*
D10*
G36*
X76981318Y71855589D02*
X77053767Y71841178D01*
X77110303Y71817760D01*
X77190257Y71784642D01*
X77313100Y71702561D01*
X77417561Y71598100D01*
X77499642Y71475257D01*
X77556178Y71338766D01*
X77585000Y71193870D01*
X77585000Y71046130D01*
X77556178Y70901234D01*
X77499642Y70764743D01*
X77417561Y70641900D01*
X77313100Y70537439D01*
X77190257Y70455358D01*
X77110303Y70422240D01*
X77053767Y70398822D01*
X76981318Y70384411D01*
X76908870Y70370000D01*
X76761130Y70370000D01*
X76688682Y70384411D01*
X76616233Y70398822D01*
X76559697Y70422240D01*
X76479743Y70455358D01*
X76356900Y70537439D01*
X76252439Y70641900D01*
X76170358Y70764743D01*
X76113822Y70901234D01*
X76085000Y71046130D01*
X76085000Y71193870D01*
X76113822Y71338766D01*
X76170358Y71475257D01*
X76252439Y71598100D01*
X76356900Y71702561D01*
X76479743Y71784642D01*
X76559697Y71817760D01*
X76616233Y71841178D01*
X76688682Y71855589D01*
X76761130Y71870000D01*
X76908870Y71870000D01*
X76981318Y71855589D01*
X76981318Y71855589D01*
G37*
G36*
X67425000Y70370000D02*
X65925000Y70370000D01*
X65925000Y71870000D01*
X67425000Y71870000D01*
X67425000Y70370000D01*
X67425000Y70370000D01*
G37*
G36*
X69361318Y71855589D02*
X69433767Y71841178D01*
X69490303Y71817760D01*
X69570257Y71784642D01*
X69693100Y71702561D01*
X69797561Y71598100D01*
X69879642Y71475257D01*
X69936178Y71338766D01*
X69965000Y71193870D01*
X69965000Y71046130D01*
X69936178Y70901234D01*
X69879642Y70764743D01*
X69797561Y70641900D01*
X69693100Y70537439D01*
X69570257Y70455358D01*
X69490303Y70422240D01*
X69433767Y70398822D01*
X69361318Y70384411D01*
X69288870Y70370000D01*
X69141130Y70370000D01*
X69068682Y70384411D01*
X68996233Y70398822D01*
X68939697Y70422240D01*
X68859743Y70455358D01*
X68736900Y70537439D01*
X68632439Y70641900D01*
X68550358Y70764743D01*
X68493822Y70901234D01*
X68465000Y71046130D01*
X68465000Y71193870D01*
X68493822Y71338766D01*
X68550358Y71475257D01*
X68632439Y71598100D01*
X68736900Y71702561D01*
X68859743Y71784642D01*
X68939697Y71817760D01*
X68996233Y71841178D01*
X69068682Y71855589D01*
X69141130Y71870000D01*
X69288870Y71870000D01*
X69361318Y71855589D01*
X69361318Y71855589D01*
G37*
G36*
X71901318Y71855589D02*
X71973767Y71841178D01*
X72030303Y71817760D01*
X72110257Y71784642D01*
X72233100Y71702561D01*
X72337561Y71598100D01*
X72419642Y71475257D01*
X72476178Y71338766D01*
X72505000Y71193870D01*
X72505000Y71046130D01*
X72476178Y70901234D01*
X72419642Y70764743D01*
X72337561Y70641900D01*
X72233100Y70537439D01*
X72110257Y70455358D01*
X72030303Y70422240D01*
X71973767Y70398822D01*
X71901318Y70384411D01*
X71828870Y70370000D01*
X71681130Y70370000D01*
X71608682Y70384411D01*
X71536233Y70398822D01*
X71479697Y70422240D01*
X71399743Y70455358D01*
X71276900Y70537439D01*
X71172439Y70641900D01*
X71090358Y70764743D01*
X71033822Y70901234D01*
X71005000Y71046130D01*
X71005000Y71193870D01*
X71033822Y71338766D01*
X71090358Y71475257D01*
X71172439Y71598100D01*
X71276900Y71702561D01*
X71399743Y71784642D01*
X71479697Y71817760D01*
X71536233Y71841178D01*
X71608682Y71855589D01*
X71681130Y71870000D01*
X71828870Y71870000D01*
X71901318Y71855589D01*
X71901318Y71855589D01*
G37*
G36*
X74441318Y71855589D02*
X74513767Y71841178D01*
X74570303Y71817760D01*
X74650257Y71784642D01*
X74773100Y71702561D01*
X74877561Y71598100D01*
X74959642Y71475257D01*
X75016178Y71338766D01*
X75045000Y71193870D01*
X75045000Y71046130D01*
X75016178Y70901234D01*
X74959642Y70764743D01*
X74877561Y70641900D01*
X74773100Y70537439D01*
X74650257Y70455358D01*
X74570303Y70422240D01*
X74513767Y70398822D01*
X74441318Y70384411D01*
X74368870Y70370000D01*
X74221130Y70370000D01*
X74148682Y70384411D01*
X74076233Y70398822D01*
X74019697Y70422240D01*
X73939743Y70455358D01*
X73816900Y70537439D01*
X73712439Y70641900D01*
X73630358Y70764743D01*
X73573822Y70901234D01*
X73545000Y71046130D01*
X73545000Y71193870D01*
X73573822Y71338766D01*
X73630358Y71475257D01*
X73712439Y71598100D01*
X73816900Y71702561D01*
X73939743Y71784642D01*
X74019697Y71817760D01*
X74076233Y71841178D01*
X74148682Y71855589D01*
X74221130Y71870000D01*
X74368870Y71870000D01*
X74441318Y71855589D01*
X74441318Y71855589D01*
G37*
G36*
X79521318Y71855589D02*
X79593767Y71841178D01*
X79650303Y71817760D01*
X79730257Y71784642D01*
X79853100Y71702561D01*
X79957561Y71598100D01*
X80039642Y71475257D01*
X80096178Y71338766D01*
X80125000Y71193870D01*
X80125000Y71046130D01*
X80096178Y70901234D01*
X80039642Y70764743D01*
X79957561Y70641900D01*
X79853100Y70537439D01*
X79730257Y70455358D01*
X79650303Y70422240D01*
X79593767Y70398822D01*
X79521318Y70384411D01*
X79448870Y70370000D01*
X79301130Y70370000D01*
X79228682Y70384411D01*
X79156233Y70398822D01*
X79099697Y70422240D01*
X79019743Y70455358D01*
X78896900Y70537439D01*
X78792439Y70641900D01*
X78710358Y70764743D01*
X78653822Y70901234D01*
X78625000Y71046130D01*
X78625000Y71193870D01*
X78653822Y71338766D01*
X78710358Y71475257D01*
X78792439Y71598100D01*
X78896900Y71702561D01*
X79019743Y71784642D01*
X79099697Y71817760D01*
X79156233Y71841178D01*
X79228682Y71855589D01*
X79301130Y71870000D01*
X79448870Y71870000D01*
X79521318Y71855589D01*
X79521318Y71855589D01*
G37*
G36*
X95405000Y74180000D02*
X93905000Y74180000D01*
X93905000Y75680000D01*
X95405000Y75680000D01*
X95405000Y74180000D01*
X95405000Y74180000D01*
G37*
G36*
X94801318Y78205589D02*
X94873767Y78191178D01*
X94930303Y78167760D01*
X95010257Y78134642D01*
X95133100Y78052561D01*
X95237561Y77948100D01*
X95319642Y77825257D01*
X95376178Y77688766D01*
X95405000Y77543870D01*
X95405000Y77396130D01*
X95376178Y77251234D01*
X95319642Y77114743D01*
X95237561Y76991900D01*
X95133100Y76887439D01*
X95010257Y76805358D01*
X94930303Y76772240D01*
X94873767Y76748822D01*
X94801318Y76734411D01*
X94728870Y76720000D01*
X94581130Y76720000D01*
X94508682Y76734411D01*
X94436233Y76748822D01*
X94379697Y76772240D01*
X94299743Y76805358D01*
X94176900Y76887439D01*
X94072439Y76991900D01*
X93990358Y77114743D01*
X93933822Y77251234D01*
X93905000Y77396130D01*
X93905000Y77543870D01*
X93933822Y77688766D01*
X93990358Y77825257D01*
X94072439Y77948100D01*
X94176900Y78052561D01*
X94299743Y78134642D01*
X94379697Y78167760D01*
X94436233Y78191178D01*
X94508682Y78205589D01*
X94581130Y78220000D01*
X94728870Y78220000D01*
X94801318Y78205589D01*
X94801318Y78205589D01*
G37*
G36*
X94801318Y80745589D02*
X94873767Y80731178D01*
X94930303Y80707760D01*
X95010257Y80674642D01*
X95133100Y80592561D01*
X95237561Y80488100D01*
X95319642Y80365257D01*
X95376178Y80228766D01*
X95405000Y80083870D01*
X95405000Y79936130D01*
X95376178Y79791234D01*
X95319642Y79654743D01*
X95237561Y79531900D01*
X95133100Y79427439D01*
X95010257Y79345358D01*
X94930303Y79312240D01*
X94873767Y79288822D01*
X94801318Y79274411D01*
X94728870Y79260000D01*
X94581130Y79260000D01*
X94508682Y79274411D01*
X94436233Y79288822D01*
X94379697Y79312240D01*
X94299743Y79345358D01*
X94176900Y79427439D01*
X94072439Y79531900D01*
X93990358Y79654743D01*
X93933822Y79791234D01*
X93905000Y79936130D01*
X93905000Y80083870D01*
X93933822Y80228766D01*
X93990358Y80365257D01*
X94072439Y80488100D01*
X94176900Y80592561D01*
X94299743Y80674642D01*
X94379697Y80707760D01*
X94436233Y80731178D01*
X94508682Y80745589D01*
X94581130Y80760000D01*
X94728870Y80760000D01*
X94801318Y80745589D01*
X94801318Y80745589D01*
G37*
G36*
X94801318Y83285589D02*
X94873767Y83271178D01*
X94930303Y83247760D01*
X95010257Y83214642D01*
X95133100Y83132561D01*
X95237561Y83028100D01*
X95319642Y82905257D01*
X95376178Y82768766D01*
X95405000Y82623870D01*
X95405000Y82476130D01*
X95376178Y82331234D01*
X95319642Y82194743D01*
X95237561Y82071900D01*
X95133100Y81967439D01*
X95010257Y81885358D01*
X94930303Y81852240D01*
X94873767Y81828822D01*
X94801318Y81814411D01*
X94728870Y81800000D01*
X94581130Y81800000D01*
X94508682Y81814411D01*
X94436233Y81828822D01*
X94379697Y81852240D01*
X94299743Y81885358D01*
X94176900Y81967439D01*
X94072439Y82071900D01*
X93990358Y82194743D01*
X93933822Y82331234D01*
X93905000Y82476130D01*
X93905000Y82623870D01*
X93933822Y82768766D01*
X93990358Y82905257D01*
X94072439Y83028100D01*
X94176900Y83132561D01*
X94299743Y83214642D01*
X94379697Y83247760D01*
X94436233Y83271178D01*
X94508682Y83285589D01*
X94581130Y83300000D01*
X94728870Y83300000D01*
X94801318Y83285589D01*
X94801318Y83285589D01*
G37*
G36*
X67425000Y85610000D02*
X65925000Y85610000D01*
X65925000Y87110000D01*
X67425000Y87110000D01*
X67425000Y85610000D01*
X67425000Y85610000D01*
G37*
G36*
X69361318Y87095589D02*
X69433767Y87081178D01*
X69490303Y87057760D01*
X69570257Y87024642D01*
X69693100Y86942561D01*
X69797561Y86838100D01*
X69879642Y86715257D01*
X69936178Y86578766D01*
X69965000Y86433870D01*
X69965000Y86286130D01*
X69936178Y86141234D01*
X69879642Y86004743D01*
X69797561Y85881900D01*
X69693100Y85777439D01*
X69570257Y85695358D01*
X69490303Y85662240D01*
X69433767Y85638822D01*
X69361318Y85624411D01*
X69288870Y85610000D01*
X69141130Y85610000D01*
X69068682Y85624411D01*
X68996233Y85638822D01*
X68939697Y85662240D01*
X68859743Y85695358D01*
X68736900Y85777439D01*
X68632439Y85881900D01*
X68550358Y86004743D01*
X68493822Y86141234D01*
X68465000Y86286130D01*
X68465000Y86433870D01*
X68493822Y86578766D01*
X68550358Y86715257D01*
X68632439Y86838100D01*
X68736900Y86942561D01*
X68859743Y87024642D01*
X68939697Y87057760D01*
X68996233Y87081178D01*
X69068682Y87095589D01*
X69141130Y87110000D01*
X69288870Y87110000D01*
X69361318Y87095589D01*
X69361318Y87095589D01*
G37*
G36*
X71901318Y87095589D02*
X71973767Y87081178D01*
X72030303Y87057760D01*
X72110257Y87024642D01*
X72233100Y86942561D01*
X72337561Y86838100D01*
X72419642Y86715257D01*
X72476178Y86578766D01*
X72505000Y86433870D01*
X72505000Y86286130D01*
X72476178Y86141234D01*
X72419642Y86004743D01*
X72337561Y85881900D01*
X72233100Y85777439D01*
X72110257Y85695358D01*
X72030303Y85662240D01*
X71973767Y85638822D01*
X71901318Y85624411D01*
X71828870Y85610000D01*
X71681130Y85610000D01*
X71608682Y85624411D01*
X71536233Y85638822D01*
X71479697Y85662240D01*
X71399743Y85695358D01*
X71276900Y85777439D01*
X71172439Y85881900D01*
X71090358Y86004743D01*
X71033822Y86141234D01*
X71005000Y86286130D01*
X71005000Y86433870D01*
X71033822Y86578766D01*
X71090358Y86715257D01*
X71172439Y86838100D01*
X71276900Y86942561D01*
X71399743Y87024642D01*
X71479697Y87057760D01*
X71536233Y87081178D01*
X71608682Y87095589D01*
X71681130Y87110000D01*
X71828870Y87110000D01*
X71901318Y87095589D01*
X71901318Y87095589D01*
G37*
G36*
X74441318Y87095589D02*
X74513767Y87081178D01*
X74570303Y87057760D01*
X74650257Y87024642D01*
X74773100Y86942561D01*
X74877561Y86838100D01*
X74959642Y86715257D01*
X75016178Y86578766D01*
X75045000Y86433870D01*
X75045000Y86286130D01*
X75016178Y86141234D01*
X74959642Y86004743D01*
X74877561Y85881900D01*
X74773100Y85777439D01*
X74650257Y85695358D01*
X74570303Y85662240D01*
X74513767Y85638822D01*
X74441318Y85624411D01*
X74368870Y85610000D01*
X74221130Y85610000D01*
X74148682Y85624411D01*
X74076233Y85638822D01*
X74019697Y85662240D01*
X73939743Y85695358D01*
X73816900Y85777439D01*
X73712439Y85881900D01*
X73630358Y86004743D01*
X73573822Y86141234D01*
X73545000Y86286130D01*
X73545000Y86433870D01*
X73573822Y86578766D01*
X73630358Y86715257D01*
X73712439Y86838100D01*
X73816900Y86942561D01*
X73939743Y87024642D01*
X74019697Y87057760D01*
X74076233Y87081178D01*
X74148682Y87095589D01*
X74221130Y87110000D01*
X74368870Y87110000D01*
X74441318Y87095589D01*
X74441318Y87095589D01*
G37*
G36*
X76981318Y87095589D02*
X77053767Y87081178D01*
X77110303Y87057760D01*
X77190257Y87024642D01*
X77313100Y86942561D01*
X77417561Y86838100D01*
X77499642Y86715257D01*
X77556178Y86578766D01*
X77585000Y86433870D01*
X77585000Y86286130D01*
X77556178Y86141234D01*
X77499642Y86004743D01*
X77417561Y85881900D01*
X77313100Y85777439D01*
X77190257Y85695358D01*
X77110303Y85662240D01*
X77053767Y85638822D01*
X76981318Y85624411D01*
X76908870Y85610000D01*
X76761130Y85610000D01*
X76688682Y85624411D01*
X76616233Y85638822D01*
X76559697Y85662240D01*
X76479743Y85695358D01*
X76356900Y85777439D01*
X76252439Y85881900D01*
X76170358Y86004743D01*
X76113822Y86141234D01*
X76085000Y86286130D01*
X76085000Y86433870D01*
X76113822Y86578766D01*
X76170358Y86715257D01*
X76252439Y86838100D01*
X76356900Y86942561D01*
X76479743Y87024642D01*
X76559697Y87057760D01*
X76616233Y87081178D01*
X76688682Y87095589D01*
X76761130Y87110000D01*
X76908870Y87110000D01*
X76981318Y87095589D01*
X76981318Y87095589D01*
G37*
G36*
X79521318Y87095589D02*
X79593767Y87081178D01*
X79650303Y87057760D01*
X79730257Y87024642D01*
X79853100Y86942561D01*
X79957561Y86838100D01*
X80039642Y86715257D01*
X80096178Y86578766D01*
X80125000Y86433870D01*
X80125000Y86286130D01*
X80096178Y86141234D01*
X80039642Y86004743D01*
X79957561Y85881900D01*
X79853100Y85777439D01*
X79730257Y85695358D01*
X79650303Y85662240D01*
X79593767Y85638822D01*
X79521318Y85624411D01*
X79448870Y85610000D01*
X79301130Y85610000D01*
X79228682Y85624411D01*
X79156233Y85638822D01*
X79099697Y85662240D01*
X79019743Y85695358D01*
X78896900Y85777439D01*
X78792439Y85881900D01*
X78710358Y86004743D01*
X78653822Y86141234D01*
X78625000Y86286130D01*
X78625000Y86433870D01*
X78653822Y86578766D01*
X78710358Y86715257D01*
X78792439Y86838100D01*
X78896900Y86942561D01*
X79019743Y87024642D01*
X79099697Y87057760D01*
X79156233Y87081178D01*
X79228682Y87095589D01*
X79301130Y87110000D01*
X79448870Y87110000D01*
X79521318Y87095589D01*
X79521318Y87095589D01*
G37*
M02*
